<?xml version="1.0" encoding="UTF-8" standalone="no"?><!DOCTYPE svg PUBLIC "-//W3C//DTD SVG 1.1//EN" "http://www.w3.org/Graphics/SVG/1.1/DTD/svg11.dtd"><svg width="100%" height="100%" viewBox="0 0 3500 475" version="1.1" xmlns="http://www.w3.org/2000/svg" xmlns:xlink="http://www.w3.org/1999/xlink" xml:space="preserve" xmlns:serif="http://www.serif.com/" style="fill-rule:evenodd;clip-rule:evenodd;stroke-linejoin:round;stroke-miterlimit:2;"><g id="OBJECTS"><path d="M1738.15,197.496c-4.413,-0 -8.317,1.042 -11.667,3.075c-10.245,6.283 -13.021,20.746 -12.275,31.229c0.988,13.821 8.229,30.054 22.188,35.071c13.783,4.966 32.029,-4.913 37.012,-19.358c5.071,-14.705 -1.491,-33.317 -15.275,-43.246c-5.937,-4.304 -13.229,-6.771 -19.983,-6.771m6.233,88.092l-0.021,-0c-4.77,-0 -9.441,-0.8 -13.816,-2.38c-18.767,-6.737 -31.963,-26.441 -33.663,-50.191c-1.129,-16.059 3.663,-36.909 20.538,-47.259c14.254,-8.695 35.554,-6.629 50.866,4.43c20.088,14.479 29.134,40.97 21.546,62.987c-6.475,18.783 -25.575,32.413 -45.45,32.413" style="fill:#f7d4c6;fill-rule:nonzero;"/><path d="M1746.71,268.229c0.295,0 0.57,0.017 0.883,0.034c4.517,0.47 7.917,4.325 7.796,8.875c-0.921,35.987 2.066,134.912 26.579,160.049c4.254,4.359 7.779,4.863 10.037,4.863c3.125,-0 6.734,-1.163 10.729,-3.454c8.855,-5.125 14.338,-12.729 16.684,-23.267c11.525,-51.283 -52.988,-145.192 -53.646,-146.146c-2.308,-3.333 -2.017,-7.829 0.763,-10.816c2.762,-3 7.241,-3.663 10.729,-1.63c0.641,0.363 64.287,36.996 110.554,36.996c24.583,0 38.146,-9.95 42.691,-31.283c2.346,-11.025 1.184,-19.221 -3.525,-25.054c-6.837,-8.438 -22.149,-12.9 -44.287,-12.9c-42.725,-0 -95.763,16.475 -96.3,16.65c-4.463,1.408 -9.288,-1.025 -10.817,-5.488c-1.512,-4.458 0.817,-9.321 5.242,-10.937c38.108,-13.992 139.15,-57.879 148.854,-92.621c1.442,-5.192 0.488,-9.496 -3.108,-13.975c-4.096,-5.138 -9.2,-7.517 -16.059,-7.517c-38.487,0 -108.141,72.725 -131.716,100.763c-3.059,3.646 -8.525,4.133 -12.188,1.096c-3.662,-3.038 -4.221,-8.475 -1.2,-12.171c25.454,-31.25 89.184,-121.475 78.579,-163.004c-2.154,-8.455 -7.225,-14.046 -15.937,-17.605c-3.788,-1.545 -7.379,-2.325 -10.696,-2.325c-37.883,0 -53.3,107.413 -54.117,175.138c-0.05,4.117 -3,7.637 -7.029,8.421c-4.116,0.762 -8.091,-1.409 -9.671,-5.225c-20.241,-49.029 -87.845,-186.234 -131.091,-151.979c-6.754,5.362 -10.246,12.429 -10.663,21.595c-2.066,47.188 76.354,132.067 106.738,160.784c2.725,2.583 3.487,6.646 1.858,10.033c-1.6,3.404 -5.279,5.363 -8.958,4.879c-0.313,-0.037 -31.825,-4.1 -66.546,-4.1c-61.371,0 -79.825,12.138 -85.383,19.375c-3.28,4.309 -4.009,9.325 -2.255,15.817c1.355,4.983 5.434,20.158 37.292,20.158c49.875,0 125.275,-36.337 126.021,-36.704c3.908,-1.908 8.683,-0.604 11.079,3.075c2.379,3.679 1.65,8.542 -1.683,11.371c-26.529,22.325 -94.55,88.508 -90.646,126.025c0.904,8.558 5.558,14.792 14.708,19.687c5.084,2.725 10.017,4.096 14.704,4.096c41.213,0 69.721,-106.962 76.459,-144.425c0.746,-4.183 4.391,-7.154 8.541,-7.154m45.296,191.179c-8.371,0 -15.937,-3.4 -22.466,-10.104c-19.325,-19.825 -26.98,-68.296 -29.913,-109.042c-14.55,44.792 -39.687,96.909 -77.917,96.909c-7.57,0.016 -15.279,-2.067 -22.916,-6.146c-14.046,-7.533 -22.275,-19.013 -23.75,-33.196c-3.525,-33.854 32.066,-77.933 61.266,-107.933c-26.77,9.775 -60.833,19.721 -88.783,19.721c-37.329,-0 -50,-17.95 -54.046,-33.021c-3.141,-11.613 -1.321,-22.309 5.242,-30.867c13.3,-17.379 46.667,-26.179 99.15,-26.179c16.546,-0 32.171,0.867 44.321,1.821c-32.1,-33.317 -96.925,-106.979 -94.754,-156.804c0.625,-14.325 6.42,-25.905 17.22,-34.463c7.725,-6.092 16.217,-9.2 25.225,-9.2c46.234,0 93.805,85.033 117.675,134.738c4.217,-56.596 18.871,-155.642 69.792,-155.642c5.571,-0 11.371,1.217 17.238,3.612c13.683,5.588 22.729,15.746 26.216,29.392c6.875,26.908 -9.096,65.8 -28.733,100.383c25.954,-21.666 54.967,-40.141 78.437,-40.141c12.05,-0 22.292,4.846 29.638,14.029c7.029,8.783 9.183,18.992 6.25,29.496c-7.242,25.954 -46.683,51.858 -84.704,71.408c7.046,-0.662 14.129,-1.042 21.004,-1.042c27.933,0 47.396,6.492 57.779,19.338c8.108,10.017 10.488,23.333 7.013,39.583c-6.267,29.463 -26.892,45.038 -59.671,45.038c-30.625,-0.004 -66.492,-13.613 -90.867,-24.846c19.721,33.925 48.492,92.467 39.408,132.867c-3.416,15.329 -11.837,26.941 -24.945,34.512c-6.667,3.838 -13.196,5.779 -19.409,5.779" style="fill:#f7d4c6;fill-rule:nonzero;"/><path d="M394.596,342.904c-97.933,0 -195.45,-19.062 -286.475,-56.404c-4.446,-1.808 -6.563,-6.875 -4.742,-11.321c1.842,-4.446 6.963,-6.579 11.321,-4.721c118.092,48.417 247.446,65.396 373.958,49.042c88.405,-11.404 176.059,-26.004 260.834,-40.121c267.812,-44.583 520.762,-86.683 799.654,-36.908c4.704,0.833 7.862,5.346 7.012,10.071c-0.85,4.72 -5.45,7.895 -10.07,7.012c-275.921,-49.287 -527.446,-7.379 -793.751,36.963c-84.929,14.15 -172.758,28.75 -261.441,40.208c-31.996,4.129 -64.167,6.179 -96.3,6.179" style="fill:#593f59;fill-rule:nonzero;"/><path d="M743.413,295.229c-30.746,15.504 -56.217,41.875 -70.8,73.075c17.379,-8.196 31.475,-17.537 42.812,-28.316c13.871,-13.213 23.492,-28.701 27.988,-44.759m-86.25,97.725c-2.171,0 -4.309,-0.816 -5.938,-2.341c-2.412,-2.276 -3.333,-5.73 -2.346,-8.909c15.209,-49.2 54.6,-90.987 102.85,-109.025c2.775,-1.062 5.85,-0.591 8.229,1.179c2.375,1.788 3.68,4.655 3.455,7.605c-1.93,25.554 -14.725,50.816 -36.025,71.091c-16.805,16.009 -38.767,29.046 -67.138,39.829c-1.004,0.38 -2.046,0.571 -3.087,0.571" style="fill:#593f59;fill-rule:nonzero;"/><path d="M620.867,324.492c-41.667,19.896 -76.217,53.629 -97.05,94.841c39.862,-22.254 73.87,-55.5 97.05,-94.841m-114.534,121.908c-2.166,0 -4.304,-0.796 -5.937,-2.342c-2.533,-2.396 -3.4,-6.058 -2.188,-9.325c23.25,-63.054 75.071,-113.696 138.63,-135.504c3.266,-1.108 6.945,-0.171 9.27,2.433c2.33,2.588 2.884,6.317 1.409,9.463c-27.709,59.183 -77.867,108.229 -137.692,134.546c-1.112,0.504 -2.292,0.729 -3.492,0.729" style="fill:#593f59;fill-rule:nonzero;"/><path d="M480.333,344.921c-43.991,22.329 -80.591,59.375 -102.346,103.662c44.5,-21.837 81.063,-58.887 102.346,-103.662m-118.958,128.925c-2.258,-0 -4.479,-0.888 -6.146,-2.554c-2.396,-2.413 -3.179,-5.988 -1.962,-9.184c24.012,-64.112 76.475,-117.237 140.279,-142.1c3.108,-1.233 6.717,-0.52 9.2,1.859c2.45,2.379 3.262,5.954 2.117,9.15c-23.209,65.05 -75.709,118.246 -140.467,142.291c-0.971,0.363 -1.996,0.538 -3.021,0.538" style="fill:#593f59;fill-rule:nonzero;"/><path d="M353.379,351.388c-30.296,13.229 -56.233,35.783 -73.541,63.941c30.245,-13.279 56.2,-35.817 73.541,-63.942m-91.525,88.284c-2.483,-0 -4.879,-1.059 -6.546,-2.971c-2.204,-2.533 -2.762,-6.108 -1.408,-9.183c21.233,-48.404 64.287,-85.834 115.158,-100.104c3.175,-0.955 6.7,0.12 8.905,2.658c2.204,2.55 2.725,6.125 1.37,9.2c-21.3,48.279 -64.354,85.675 -115.12,100.071c-0.78,0.225 -1.58,0.329 -2.359,0.329" style="fill:#593f59;fill-rule:nonzero;"/><path d="M243.196,339.725c-11.929,3.821 -23.163,9.758 -33.042,17.429c11.896,-3.854 23.146,-9.771 33.042,-17.429m-58.717,39.742c-3.196,-0 -6.146,-1.771 -7.658,-4.621c-1.596,-2.983 -1.284,-6.629 0.767,-9.338c21.508,-28.195 55.483,-46.112 90.9,-47.937c2.937,-0.104 6.562,1.633 8.145,4.637c1.563,3.021 1.23,6.667 -0.833,9.342c-21.6,27.933 -55.558,45.833 -90.817,47.896c-0.158,-0 -0.329,0.021 -0.504,0.021" style="fill:#593f59;fill-rule:nonzero;"/><path d="M100.896,348.946l-2.308,-0.017c-3.592,-0.067 -6.755,-2.325 -8.005,-5.692c-1.212,-3.354 -0.258,-7.137 2.434,-9.5c25.104,-22.083 58.696,-34.825 92.15,-34.962l0.021,-0c3.591,-0 6.787,2.187 8.087,5.504c1.304,3.35 0.433,7.133 -2.221,9.563c-24.271,22.312 -57.137,35.108 -90.158,35.108" style="fill:#593f59;fill-rule:nonzero;"/><path d="M40.05,251.733c16.129,7.325 33.158,12.675 50.592,15.884c-7.05,-6.125 -16.355,-10.78 -26.996,-13.263c-6.963,-1.633 -14.708,-2.5 -23.596,-2.621m69.758,35.905c-0.262,-0.005 -0.52,-0.021 -0.766,-0.038c-37.221,-3.279 -73.542,-15.608 -105.017,-35.713c-3.158,-1.995 -4.671,-5.779 -3.767,-9.408c0.904,-3.612 4.013,-6.267 7.725,-6.562c9.184,-0.73 19.567,-1.563 29.775,-1.563c11.217,0 20.971,1.008 29.863,3.092c23.4,5.483 42.133,19.704 50.137,38.037c1.234,2.813 0.867,6.042 -0.904,8.542c-1.646,2.275 -4.271,3.613 -7.046,3.613" style="fill:#593f59;fill-rule:nonzero;"/><path d="M135.029,230.292c6.421,20.75 18.992,39.671 35.604,53.666c-5.395,-21.166 -18.208,-40.47 -35.604,-53.666m47.375,80.904c-0.066,-0 -0.208,0.017 -0.346,-0c-1.491,-0 -2.987,-0.383 -4.32,-1.163c-34.638,-19.845 -59.15,-56.804 -63.98,-96.441c-0.379,-3.142 0.975,-6.217 3.525,-8.071c2.554,-1.842 5.938,-2.138 8.767,-0.854c36.375,17 62.067,54.933 64.55,95c0.329,0.887 0.488,1.841 0.488,2.85c-0,4.791 -3.892,8.679 -8.684,8.679" style="fill:#593f59;fill-rule:nonzero;"/><path d="M216.271,252.913c6.6,21.562 19.967,41.233 37.587,55.312c-1.387,-11.529 -5.504,-22.762 -11.979,-32.292c-6.458,-9.533 -15.416,-17.5 -25.608,-23.02m46.425,80.483c-1.492,-0 -2.988,-0.396 -4.321,-1.163c-33.196,-19.079 -57.242,-54.462 -62.779,-92.341c-0.433,-2.917 0.658,-5.834 2.883,-7.779c2.204,-1.946 5.242,-2.621 8.071,-1.821c19.95,5.658 38.054,18.75 49.704,35.883c11.634,17.138 17.121,38.804 15.071,59.392c-0.296,2.933 -2.033,5.521 -4.671,6.875c-1.233,0.625 -2.604,0.954 -3.958,0.954" style="fill:#593f59;fill-rule:nonzero;"/><path d="M301.704,249.488c8.229,28.191 26.717,53.245 51.25,69.391c-9.654,-27.587 -27.725,-52.033 -51.25,-69.391m64.963,95.416c-1.18,0 -2.375,-0.262 -3.488,-0.75c-44.533,-19.616 -76.979,-63.541 -82.637,-111.875c-0.367,-3.208 1.091,-6.371 3.766,-8.191c2.671,-1.825 6.163,-1.98 8.992,-0.455c41.25,22.275 71.529,62.73 81.387,108.525c0.646,1.217 1.009,2.588 1.009,4.063c-0,4.792 -3.888,8.683 -8.679,8.683c-0.088,0 -0.225,0.017 -0.35,0" style="fill:#593f59;fill-rule:nonzero;"/><path d="M381.983,214.138c17.775,42.795 52.325,78.437 94.513,97.62c-8.8,-23.158 -20.817,-43.108 -35.867,-59.445c-16.704,-18.142 -37.121,-31.355 -58.646,-38.176m108.646,121.18c-0.937,-0 -1.858,-0.138 -2.762,-0.434c-59.963,-20.104 -108.975,-70.071 -127.879,-130.416c-0.888,-2.884 -0.23,-6.042 1.77,-8.317c1.98,-2.292 5,-3.35 8,-2.829c30.767,5.296 60.471,22.083 83.646,47.221c20.054,21.77 35.159,49.166 44.879,81.441c0.871,1.354 1.355,2.954 1.355,4.654c-0,4.863 -3.175,8.575 -8.838,8.68l-0.171,-0Z" style="fill:#593f59;fill-rule:nonzero;"/><path d="M506.154,210.583c28.559,37.588 69.825,65.296 115.434,77.484c-27.1,-39.025 -69.046,-67.171 -115.434,-77.484m133.492,98.925c-0.471,0 -0.921,-0.033 -1.408,-0.12c-64.655,-10.659 -123.767,-50.33 -158.125,-106.13c-1.755,-2.812 -1.717,-6.387 0.054,-9.183c1.771,-2.796 4.858,-4.358 8.279,-3.992c65.471,7.167 125.729,47.221 157.779,104.721c1.525,1.546 2.446,3.679 2.446,6.025c-0,4.858 -3.504,8.525 -8.838,8.679l-0.187,0Z" style="fill:#593f59;fill-rule:nonzero;"/><path d="M647.875,218.425c21.196,24.6 50.346,42.467 81.892,50.313c-10.938,-10.45 -23.038,-21.025 -35.954,-29.705c-15.192,-10.225 -30.8,-17.204 -45.938,-20.608m107.029,71.738c-0.208,-0 -0.379,-0.017 -0.587,-0.017c-52.988,-3.667 -103.909,-33.563 -132.884,-78.058c-1.754,-2.709 -1.891,-6.146 -0.329,-8.959c1.579,-2.796 3.992,-4.216 7.759,-4.462c24.27,0.454 50.087,9.429 74.654,25.958c20.225,13.608 37.516,30.45 56.283,49.458c2.483,1.53 4.133,4.271 4.133,7.396c0,4.792 -3.887,8.684 -8.679,8.684l-0.35,-0" style="fill:#593f59;fill-rule:nonzero;"/><path d="M767.3,193.696c23.212,27.258 53.596,46.167 90.729,56.408c-22.55,-28.575 -55.121,-48.821 -90.729,-56.408m110.242,78.387c-0.521,0 -1.021,-0.033 -1.525,-0.137c-59.134,-10.575 -104.725,-39.15 -135.538,-84.95c-1.842,-2.758 -1.962,-6.338 -0.296,-9.217c1.65,-2.866 4.479,-4.479 8.142,-4.291c55.383,4.083 107.154,36.095 135.642,83.716c1.595,1.579 2.587,3.767 2.587,6.2c0,4.842 -3.804,8.767 -8.837,8.679l-0.175,0Z" style="fill:#593f59;fill-rule:nonzero;"/><path d="M866.396,285.479c-45.954,10.488 -84.754,47.434 -97.463,92.813c42.863,-16.788 78.609,-50.813 97.463,-92.813m-109.146,114.654c-2.067,0 -4.1,-0.746 -5.713,-2.154c-2.225,-1.941 -3.316,-4.896 -2.866,-7.829c9.687,-64.338 65.816,-117.796 130.558,-124.338c2.879,-0.245 5.833,0.938 7.688,3.263c1.825,2.308 2.345,5.417 1.391,8.212c-20.158,58.263 -69.446,105.192 -128.612,122.501c-0.817,0.241 -1.633,0.345 -2.446,0.345" style="fill:#593f59;fill-rule:nonzero;"/><path d="M1007.27,272.154c-25.209,18.196 -44.913,36.842 -59.913,56.65c-18.004,23.8 -29.583,50.434 -33.42,76.425c47.741,-28.733 82.516,-78.437 93.333,-133.075m-103.367,157.1c-1.633,0 -3.266,-0.45 -4.687,-1.371c-2.554,-1.633 -4.063,-4.495 -3.996,-7.516c1.129,-44.013 21.442,-79.775 38.3,-102.034c19.287,-25.483 45.592,-48.975 80.4,-71.821c2.758,-1.841 6.337,-1.891 9.233,-0.191c2.85,1.721 4.479,4.912 4.167,8.246c-6.7,73.162 -53.663,141.371 -119.583,173.804c-1.23,0.587 -2.534,0.883 -3.834,0.883" style="fill:#593f59;fill-rule:nonzero;"/><path d="M880.588,168.479c32.658,33.179 75,56.529 120.487,66.475c-29.983,-35.729 -74.271,-60.171 -120.487,-66.475m140.329,87.346c-0.346,0 -0.709,-0.021 -1.075,-0.071c-64.704,-8.075 -125.521,-41.617 -166.875,-92.033c-2.134,-2.621 -2.571,-6.229 -1.092,-9.288c1.458,-3.02 4.042,-4.704 7.933,-4.895c67.205,0.954 131.734,36.545 168.384,92.866c1.841,2.829 1.875,6.475 0.087,9.338c-1.596,2.571 -4.392,4.083 -7.362,4.083" style="fill:#593f59;fill-rule:nonzero;"/><path d="M1057.13,156.804c20.746,30.954 53.175,53.959 89.217,63.334c-23.838,-27.934 -54.967,-50.034 -89.217,-63.334m109.754,84.55c-0.274,0 -0.587,-0.016 -0.883,-0.033c-57.587,-5.975 -110.696,-43.684 -135.312,-96.096c-1.442,-3.071 -0.975,-6.683 1.195,-9.287c2.171,-2.588 5.609,-3.663 8.942,-2.78c53.317,14.567 101.875,49.046 133.213,94.6c1.925,2.796 2.05,6.442 0.312,9.342c-1.579,2.658 -4.429,4.254 -7.466,4.254" style="fill:#593f59;fill-rule:nonzero;"/><path d="M1154.84,248.996c-18.405,7.15 -35.384,22.1 -48.075,42.654c-10.592,17.225 -17.517,36.546 -23.317,56.146c31.892,-25.817 56.962,-60.45 71.392,-98.8m-86.409,129.046c-1.787,-0 -3.612,-0.575 -5.104,-1.688c-2.9,-2.117 -4.2,-5.796 -3.262,-9.271c7.708,-28.608 15.712,-58.191 31.925,-84.529c18.683,-30.296 45.975,-50.225 74.896,-54.687c2.9,-0.45 5.92,0.625 7.866,2.862c1.963,2.242 2.638,5.333 1.788,8.179c-16.58,55.971 -54.271,106.179 -103.405,137.759c-1.441,0.904 -3.07,1.375 -4.704,1.375" style="fill:#593f59;fill-rule:nonzero;"/><path d="M1312.82,251.604c-53.646,19.792 -98.667,62.834 -120.871,115.521c51.946,-23.071 95.471,-64.667 120.871,-115.521m-135.646,139.413c-2.204,-0 -4.375,-0.85 -6.021,-2.434c-2.379,-2.291 -3.25,-5.691 -2.275,-8.833c22.484,-72.313 84.338,-131.425 157.588,-150.625c3.175,-0.833 6.562,0.208 8.712,2.654c2.171,2.467 2.763,5.938 1.546,8.975c-27.813,69.134 -86.388,125.121 -156.683,149.759c-0.938,0.345 -1.909,0.504 -2.867,0.504" style="fill:#593f59;fill-rule:nonzero;"/><path d="M1206.21,128.95c26.82,33.975 60.779,62.758 98.679,83.679c-23.055,-37.029 -58.384,-66.996 -98.679,-83.679m119.024,112.188c-1.179,-0 -2.375,-0.242 -3.52,-0.763c-58.596,-26.096 -110.313,-69.967 -145.625,-123.508c-2,-3.004 -1.93,-6.909 0.17,-9.846c2.1,-2.917 5.767,-4.25 9.271,-3.333c65,17.066 120.192,63.891 147.621,125.229c1.479,3.279 0.767,7.116 -1.771,9.666c-1.666,1.667 -3.887,2.555 -6.146,2.555" style="fill:#593f59;fill-rule:nonzero;"/><path d="M1338.44,123.196c18.333,36.508 46.233,68.471 79.912,91.542c-16.163,-37.984 -44.463,-70.396 -79.912,-91.542m96.216,120.362c-1.425,0 -2.85,-0.345 -4.133,-1.041c-53.421,-28.992 -96.425,-78.229 -117.95,-135.121c-1.25,-3.263 -0.4,-6.963 2.133,-9.358c2.5,-2.413 6.234,-3.055 9.463,-1.667c57.325,25.017 101.771,75.921 118.837,136.146c0.954,3.35 -0.191,6.962 -2.933,9.133c-1.563,1.267 -3.492,1.908 -5.417,1.908" style="fill:#593f59;fill-rule:nonzero;"/><path d="M1426,270.025c-36.525,21.617 -66.804,53.229 -86.821,90.663c35.659,-22.45 65.938,-54.063 86.821,-90.663m-105.9,119.896c-2.137,-0 -4.254,-0.779 -5.871,-2.309c-2.654,-2.429 -3.525,-6.216 -2.187,-9.55c23.7,-60.104 71.146,-109.633 130.175,-135.9c3.279,-1.474 7.1,-0.745 9.633,1.755c2.554,2.533 3.284,6.354 1.842,9.633c-25.433,58.196 -72.742,107.588 -129.775,135.488c-1.213,0.608 -2.5,0.883 -3.817,0.883" style="fill:#593f59;fill-rule:nonzero;"/><path d="M1451.96,112.004c19.079,38.196 43.75,73.75 72.845,104.967c-15.383,-40.138 -40.625,-76.513 -72.845,-104.967m91.387,144.238c-2.117,-0 -4.217,-0.763 -5.867,-2.275c-50.208,-45.988 -90.225,-103.646 -115.745,-166.788c-1.425,-3.525 -0.384,-7.587 2.566,-9.983c2.971,-2.413 7.154,-2.588 10.313,-0.467c58.229,39.079 100.937,100.625 117.17,168.817c0.888,3.717 -0.762,7.571 -4.045,9.496c-1.371,0.816 -2.879,1.2 -4.392,1.2" style="fill:#593f59;fill-rule:nonzero;"/><path d="M1526.29,266.838c-13.354,7.916 -25.4,20.454 -34.917,36.529c-7.863,13.3 -13.558,27.9 -18.417,42.758c24.479,-20.867 43.313,-48.783 53.334,-79.287m-69.188,110.262c-1.875,0 -3.712,-0.608 -5.258,-1.787c-2.867,-2.171 -4.079,-5.888 -3.075,-9.342c7.033,-24.046 14.325,-48.909 27.658,-71.442c15.329,-25.921 36.788,-44.112 60.45,-51.233c2.933,-0.884 6.146,-0.154 8.388,1.929c2.254,2.083 3.229,5.208 2.604,8.212c-10.625,49.809 -42.867,95.555 -86.217,122.359c-1.404,0.871 -2.987,1.304 -4.55,1.304" style="fill:#593f59;fill-rule:nonzero;"/><path d="M3103.18,342.904c-32.133,0 -64.287,-2.05 -96.3,-6.179c-88.683,-11.458 -176.512,-26.058 -261.425,-40.208c-266.304,-44.342 -517.866,-86.2 -793.75,-36.963c-4.67,0.867 -9.237,-2.292 -10.07,-7.012c-0.85,-4.725 2.308,-9.238 7.016,-10.071c278.871,-49.792 531.821,-7.675 799.65,36.925c84.775,14.1 172.434,28.7 260.817,40.104c126.596,16.375 255.887,-0.625 373.975,-49.042c4.375,-1.841 9.479,0.292 11.321,4.721c1.821,4.446 -0.296,9.513 -4.742,11.321c-91.004,37.342 -188.542,56.404 -286.492,56.404" style="fill:#593f59;fill-rule:nonzero;"/><path d="M2754.37,295.238c4.516,16.058 14.133,31.545 27.987,44.741c11.338,10.779 25.434,20.121 42.829,28.334c-14.583,-31.217 -40.071,-57.571 -70.816,-73.075m86.266,97.708c-1.041,-0 -2.083,-0.175 -3.087,-0.554c-28.404,-10.8 -50.35,-23.838 -67.154,-39.829c-21.284,-20.275 -34.08,-45.521 -36.025,-71.092c-0.225,-2.971 1.079,-5.834 3.437,-7.604c2.363,-1.788 5.488,-2.242 8.246,-1.2c47.537,17.779 86.479,58.579 102.154,106.825c0.921,1.37 1.442,3.004 1.442,4.775c-0,4.808 -3.871,8.679 -8.679,8.679c-0.088,0.017 -0.192,0.017 -0.334,-0" style="fill:#593f59;fill-rule:nonzero;"/><path d="M2876.93,324.492c23.179,39.341 57.188,72.571 97.05,94.841c-20.833,-41.212 -55.367,-74.945 -97.05,-94.841m114.517,121.908c-1.2,0 -2.379,-0.225 -3.492,-0.729c-59.808,-26.338 -109.983,-75.363 -137.675,-134.546c-1.475,-3.146 -0.916,-6.875 1.409,-9.463c2.341,-2.604 6.025,-3.541 9.27,-2.433c62.846,21.563 114.2,71.304 137.83,133.371c1.058,1.442 1.666,3.212 1.666,5.121c0,4.808 -3.871,8.679 -8.679,8.679c-0.071,0.017 -0.192,0.017 -0.329,0" style="fill:#593f59;fill-rule:nonzero;"/><path d="M3017.46,344.921c21.266,44.758 57.829,81.825 102.345,103.662c-21.77,-44.287 -58.35,-81.333 -102.345,-103.662m118.958,128.925c-1.025,-0 -2.046,-0.175 -3.021,-0.538c-64.775,-24.062 -117.275,-77.258 -140.467,-142.291c-1.145,-3.213 -0.329,-6.771 2.117,-9.15c2.467,-2.379 6.096,-3.075 9.2,-1.859c63.092,24.584 115.071,76.805 139.479,139.984c1.079,1.441 1.704,3.229 1.704,5.175c0,4.791 -3.891,8.679 -8.683,8.679c-0.083,-0 -0.225,0.017 -0.329,-0" style="fill:#593f59;fill-rule:nonzero;"/><path d="M3144.42,351.388c17.362,28.125 43.3,50.662 73.541,63.941c-17.308,-28.158 -43.245,-50.712 -73.541,-63.942m91.529,88.284c-0.784,-0 -1.563,-0.104 -2.363,-0.329c-50.762,-14.375 -93.821,-51.792 -115.12,-100.071c-1.355,-3.075 -0.834,-6.65 1.37,-9.2c2.221,-2.538 5.713,-3.596 8.904,-2.659c50.159,14.08 92.709,50.642 114.255,98.055c1.233,1.495 1.979,3.42 1.979,5.52c-0.017,4.863 -4.025,8.476 -8.838,8.684l-0.187,-0Z" style="fill:#593f59;fill-rule:nonzero;"/><path d="M3254.6,339.733c9.896,7.642 21.125,13.58 33.021,17.413c-9.879,-7.671 -21.096,-13.592 -33.021,-17.413m59.025,39.725c-0.066,0.017 -0.154,0.017 -0.329,0c-0.175,0 -0.346,0 -0.504,-0.02c-35.258,-2.046 -69.2,-19.946 -90.796,-47.896c-2.067,-2.675 -2.396,-6.321 -0.833,-9.325c1.579,-3.005 5.416,-4.738 8.141,-4.654c34.738,1.808 68.088,19.083 89.65,46.354c2.05,1.583 3.354,4.062 3.354,6.858c0,4.792 -3.875,8.683 -8.683,8.683" style="fill:#593f59;fill-rule:nonzero;"/><path d="M3396.9,348.946c-33.037,-0 -65.904,-12.792 -90.175,-35.104c-2.638,-2.43 -3.508,-6.213 -2.204,-9.563c1.3,-3.317 4.496,-5.504 8.091,-5.504l0.017,0c33.454,0.137 67.046,12.879 92.15,34.963c2.692,2.362 3.646,6.145 2.434,9.5c-1.25,3.366 -4.413,5.625 -8.005,5.691l-2.308,0.017Z" style="fill:#593f59;fill-rule:nonzero;"/><path d="M3457.75,251.733c-8.888,0.121 -16.633,0.988 -23.592,2.621c-10.662,2.483 -19.966,7.138 -27.016,13.263c17.433,-3.209 34.462,-8.559 50.608,-15.884m-69.758,35.905c-2.776,-0.005 -5.396,-1.338 -7.046,-3.613c-1.771,-2.483 -2.138,-5.729 -0.905,-8.542c7.988,-18.333 26.721,-32.554 50.138,-38.037c8.892,-2.084 18.646,-3.092 29.863,-3.092c10.208,0 20.591,0.834 29.774,1.563c3.717,0.296 6.821,2.95 7.726,6.562c0.904,3.629 -0.609,7.413 -3.767,9.409c-31.475,20.104 -67.796,32.433 -105.017,35.712c-0.246,0.017 -0.504,0.033 -0.766,0.033" style="fill:#593f59;fill-rule:nonzero;"/><path d="M3362.77,230.292c-17.396,13.196 -30.208,32.5 -35.608,53.646c16.612,-13.975 29.183,-32.896 35.608,-53.646m-47.033,80.904c-1.563,-0 -3.125,-0.417 -4.496,-1.267c-2.692,-1.616 -4.304,-4.6 -4.184,-7.741c1.546,-40.975 27.534,-80.159 64.688,-97.521c2.829,-1.3 6.212,-1.004 8.767,0.854c2.55,1.854 3.904,4.929 3.525,8.071c-4.83,39.637 -29.342,76.596 -63.975,96.441c-1.338,0.779 -2.834,1.163 -4.325,1.163" style="fill:#593f59;fill-rule:nonzero;"/><path d="M3281.51,252.913c-10.191,5.52 -19.133,13.487 -25.591,23.02c-6.475,9.513 -10.588,20.763 -11.98,32.275c17.605,-14.062 30.975,-33.75 37.571,-55.295m-46.404,80.483c-1.354,-0 -2.708,-0.329 -3.958,-0.954c-2.642,-1.354 -4.375,-3.942 -4.671,-6.875c-2.067,-20.625 3.437,-42.275 15.087,-59.392c11.63,-17.133 29.738,-30.225 49.688,-35.883c2.846,-0.784 5.867,-0.125 8.071,1.821c2.221,1.945 3.316,4.879 2.883,7.779c-5.558,37.879 -29.6,73.262 -62.779,92.341c-1.338,0.767 -2.829,1.163 -4.321,1.163" style="fill:#593f59;fill-rule:nonzero;"/><path d="M3196.09,249.488c-23.525,17.358 -41.596,41.804 -51.25,69.391c24.533,-16.146 43.021,-41.2 51.25,-69.391m-64.967,95.416c-1.942,0 -3.871,-0.662 -5.433,-1.912c-2.517,-2.029 -3.713,-5.296 -3.071,-8.471c9.321,-46.771 39.912,-88.229 81.875,-110.888c2.862,-1.541 6.337,-1.354 8.992,0.455c2.675,1.82 4.133,4.983 3.766,8.191c-5.658,48.334 -38.108,92.259 -82.621,111.875c-1.129,0.488 -2.325,0.75 -3.508,0.75" style="fill:#593f59;fill-rule:nonzero;"/><path d="M3115.81,214.138c-21.526,6.841 -41.942,20.033 -58.646,38.175c-14.825,16.095 -27.046,36.408 -35.834,59.429c42.154,-19.184 76.688,-54.809 94.479,-97.605m-108.645,121.18c-2.205,-0 -4.375,-0.834 -6.005,-2.413c-2.329,-2.237 -3.229,-5.591 -2.329,-8.696c9.567,-32.745 25.313,-61.666 45.559,-83.666c23.175,-25.138 52.879,-41.925 83.645,-47.221c2.917,-0.521 6.005,0.537 8.005,2.829c1.995,2.275 2.654,5.433 1.77,8.317c-18.925,60.346 -67.937,110.312 -127.883,130.416c-0.904,0.296 -1.825,0.434 -2.762,0.434" style="fill:#593f59;fill-rule:nonzero;"/><path d="M2991.62,210.583c-46.387,10.313 -88.333,38.459 -115.417,77.484c45.592,-12.188 86.859,-39.896 115.417,-77.484m-133.471,98.925c-2.796,0 -5.437,-1.337 -7.083,-3.646c-1.929,-2.691 -2.138,-6.266 -0.559,-9.183c31.771,-58.491 92.642,-99.342 158.821,-106.596c3.367,-0.366 6.509,1.196 8.28,3.992c1.77,2.796 1.808,6.371 0.054,9.183c-34.359,55.8 -93.471,95.471 -158.109,106.13c-0.466,0.087 -0.937,0.12 -1.404,0.12" style="fill:#593f59;fill-rule:nonzero;"/><path d="M2849.92,218.425c-15.138,3.404 -30.746,10.383 -45.938,20.608c-12.725,8.542 -24.112,18.384 -35.937,29.688c31.529,-7.829 60.679,-25.696 81.875,-50.296m-107.046,71.738c-3.371,-0 -6.458,-1.963 -7.883,-5.071c-1.513,-3.279 -0.834,-7.134 1.716,-9.704c15.713,-15.955 35.296,-35.8 57.571,-50.763c24.567,-16.529 50.383,-25.504 74.654,-25.958l0.154,-0c3.163,-0 6.059,1.704 7.605,4.479c1.562,2.796 1.425,6.233 -0.329,8.942c-28.975,44.495 -79.913,74.391 -132.9,78.058c-0.209,-0 -0.38,0.017 -0.588,0.017" style="fill:#593f59;fill-rule:nonzero;"/><path d="M2730.5,193.696c-35.609,7.587 -68.175,27.833 -90.729,56.408c37.137,-10.241 67.516,-29.15 90.729,-56.408m-110.258,78.387c-2.796,0 -5.471,-1.354 -7.105,-3.7c-1.941,-2.775 -2.1,-6.404 -0.396,-9.337c28.263,-48.646 80.642,-81.425 136.734,-85.558c3.454,-0.209 6.496,1.425 8.141,4.291c1.667,2.879 1.546,6.459 -0.291,9.217c-30.8,45.8 -76.409,74.375 -135.559,84.95c-0.504,0.104 -1.004,0.137 -1.524,0.137" style="fill:#593f59;fill-rule:nonzero;"/><path d="M2631.43,285.529c18.838,41.963 54.546,75.959 97.359,92.746c-12.775,-44.704 -52.084,-82.137 -97.359,-92.746m109.096,114.604c-0.816,0 -1.633,-0.125 -2.429,-0.35c-59.183,-17.308 -108.454,-64.254 -128.612,-122.5c-0.955,-2.795 -0.434,-5.883 1.387,-8.212c1.858,-2.325 4.688,-3.504 7.692,-3.263c64.741,6.546 120.887,60 130.537,124.359c0.454,2.916 -0.641,5.883 -2.862,7.829c-1.596,1.387 -3.646,2.137 -5.713,2.137" style="fill:#593f59;fill-rule:nonzero;"/><path d="M2490.54,272.163c10.8,54.637 45.575,104.325 93.316,133.054c-3.837,-25.988 -15.416,-52.621 -33.437,-76.404c-14.963,-19.792 -34.671,-38.438 -59.879,-56.65m103.354,157.099c-1.304,0 -2.604,-0.295 -3.838,-0.883c-65.92,-32.433 -112.883,-100.662 -119.583,-173.821c-0.313,-3.316 1.317,-6.529 4.183,-8.229c2.846,-1.7 6.442,-1.65 9.217,0.175c34.846,22.9 61.146,46.388 80.383,71.821c16.859,22.258 37.188,58.021 38.317,102.033c0.071,3.038 -1.442,5.884 -3.992,7.534c-1.425,0.904 -3.058,1.37 -4.687,1.37" style="fill:#593f59;fill-rule:nonzero;"/><path d="M2617.21,168.479c-46.216,6.304 -90.521,30.746 -120.487,66.475c45.487,-9.946 87.829,-33.296 120.487,-66.475m-140.329,87.346c-2.971,0 -5.766,-1.512 -7.362,-4.083c-1.788,-2.863 -1.755,-6.509 0.087,-9.338c36.65,-56.321 101.179,-91.912 168.367,-92.866c3.891,0.245 6.496,1.875 7.933,4.895c1.479,3.059 1.042,6.667 -1.091,9.288c-41.338,50.4 -102.155,83.958 -166.859,92.033c-0.362,0.05 -0.729,0.071 -1.075,0.071" style="fill:#593f59;fill-rule:nonzero;"/><path d="M2440.65,156.804c-34.234,13.3 -65.363,35.4 -89.2,63.334c36.058,-9.375 68.471,-32.396 89.2,-63.334m-109.738,84.55c-3.037,0 -5.887,-1.596 -7.466,-4.254c-1.734,-2.9 -1.613,-6.546 0.312,-9.342c31.321,-45.554 79.879,-80.016 133.196,-94.6c3.3,-0.883 6.754,0.192 8.942,2.78c2.17,2.587 2.637,6.216 1.195,9.287c-24.6,52.396 -77.691,90.121 -135.295,96.096c-0.292,0.017 -0.605,0.033 -0.884,0.033" style="fill:#593f59;fill-rule:nonzero;"/><path d="M2342.94,248.996c14.445,38.35 39.516,73.004 71.408,98.8c-5.8,-19.6 -12.725,-38.921 -23.334,-56.146c-12.691,-20.554 -29.67,-35.504 -48.075,-42.654m86.425,129.046c-1.633,-0 -3.262,-0.471 -4.704,-1.375c-49.116,-31.563 -86.825,-81.771 -103.421,-137.759c-0.85,-2.845 -0.175,-5.937 1.788,-8.179c1.946,-2.237 4.933,-3.312 7.867,-2.862c28.92,4.462 56.212,24.391 74.895,54.687c16.234,26.338 24.234,55.921 31.942,84.529c0.938,3.475 -0.362,7.155 -3.262,9.271c-1.492,1.113 -3.317,1.688 -5.105,1.688" style="fill:#593f59;fill-rule:nonzero;"/><path d="M2184.96,251.604c25.417,50.854 68.942,92.467 120.871,115.521c-22.204,-52.687 -67.225,-95.729 -120.871,-115.521m135.646,139.413c-0.958,-0 -1.929,-0.159 -2.867,-0.504c-70.279,-24.638 -128.854,-80.625 -156.683,-149.759c-1.217,-3.037 -0.625,-6.508 1.546,-8.975c2.15,-2.446 5.504,-3.487 8.712,-2.654c73.251,19.2 135.105,78.313 157.588,150.625c0.975,3.142 0.104,6.542 -2.275,8.833c-1.646,1.584 -3.817,2.434 -6.021,2.434" style="fill:#593f59;fill-rule:nonzero;"/><path d="M2291.57,128.95c-40.296,16.683 -75.608,46.65 -98.667,83.679c37.884,-20.9 71.842,-49.704 98.667,-83.679m-119.029,112.188c-2.259,-0 -4.479,-0.888 -6.146,-2.555c-2.533,-2.55 -3.246,-6.387 -1.771,-9.666c27.467,-61.338 82.638,-108.163 147.621,-125.229c3.492,-0.917 7.171,0.416 9.271,3.333c2.1,2.937 2.171,6.842 0.175,9.846c-35.313,53.558 -87.034,97.429 -145.625,123.508c-1.146,0.521 -2.346,0.763 -3.525,0.763" style="fill:#593f59;fill-rule:nonzero;"/><path d="M2159.34,123.196c-35.45,21.146 -63.75,53.558 -79.913,91.542c33.679,-23.071 61.596,-55.05 79.913,-91.542m-96.217,120.362c-1.925,0 -3.854,-0.641 -5.417,-1.908c-2.741,-2.171 -3.887,-5.783 -2.933,-9.133c17.067,-60.209 61.496,-111.113 118.837,-136.146c3.246,-1.388 6.946,-0.729 9.463,1.667c2.533,2.395 3.383,6.095 2.133,9.358c-21.508,56.875 -64.496,106.129 -117.95,135.121c-1.283,0.696 -2.708,1.041 -4.133,1.041" style="fill:#593f59;fill-rule:nonzero;"/><path d="M2071.79,270.025c20.883,36.6 51.146,68.196 86.804,90.642c-20.017,-37.413 -50.296,-69.025 -86.804,-90.642m105.904,119.896c-1.321,-0 -2.604,-0.275 -3.821,-0.884c-57.033,-27.899 -104.342,-77.291 -129.775,-135.487c-1.442,-3.279 -0.712,-7.1 1.842,-9.633c2.533,-2.5 6.387,-3.23 9.633,-1.755c59.013,26.267 106.458,75.796 130.175,135.9c1.338,3.334 0.467,7.121 -2.187,9.55c-1.617,1.53 -3.734,2.309 -5.867,2.309" style="fill:#593f59;fill-rule:nonzero;"/><path d="M2045.83,112.004c-32.22,28.454 -57.462,64.829 -72.829,104.95c29.1,-31.216 53.767,-66.754 72.829,-104.95m-91.387,144.238c-1.509,-0 -3.021,-0.384 -4.392,-1.2c-3.283,-1.925 -4.929,-5.779 -4.046,-9.496c16.234,-68.192 58.942,-129.738 117.171,-168.817c3.142,-2.137 7.342,-1.946 10.313,0.467c2.95,2.396 3.991,6.458 2.571,9.983c-25.521,63.109 -65.542,120.779 -115.75,166.788c-1.646,1.491 -3.75,2.275 -5.867,2.275" style="fill:#593f59;fill-rule:nonzero;"/><path d="M1971.51,266.838c10.017,30.52 28.855,58.437 53.334,79.287c-4.863,-14.858 -10.559,-29.458 -18.421,-42.758c-9.517,-16.096 -21.563,-28.63 -34.913,-36.529m69.184,110.262c-1.563,-0 -3.142,-0.433 -4.55,-1.304c-43.35,-26.788 -75.592,-72.517 -86.234,-122.359c-0.641,-3.004 0.35,-6.129 2.604,-8.212c2.259,-2.083 5.488,-2.813 8.388,-1.929c23.662,7.121 45.137,25.312 60.467,51.233c13.333,22.533 20.625,47.396 27.658,71.442c1.004,3.454 -0.208,7.171 -3.075,9.341c-1.546,1.18 -3.383,1.788 -5.258,1.788" style="fill:#593f59;fill-rule:nonzero;"/></g></svg>