<?xml version="1.0" encoding="UTF-8" standalone="no"?><!DOCTYPE svg PUBLIC "-//W3C//DTD SVG 1.1//EN" "http://www.w3.org/Graphics/SVG/1.1/DTD/svg11.dtd"><svg width="100%" height="100%" viewBox="0 0 18318 14509" version="1.1" xmlns="http://www.w3.org/2000/svg" xmlns:xlink="http://www.w3.org/1999/xlink" xml:space="preserve" xmlns:serif="http://www.serif.com/" style="fill-rule:evenodd;clip-rule:evenodd;stroke-linejoin:round;stroke-miterlimit:2;"><rect x="0" y="0" width="18317.2" height="14508.3" style="fill:#422b45;"/><path d="M5722.02,9226.33c51.175,-70.033 85.78,-147.329 141.796,-210.916c31.096,-35.3 64.75,-67.075 107.95,-85.663c76.671,-32.996 123.796,-7.983 151.021,74.346c20.483,61.925 14.45,126.038 20.321,189.188c4.55,48.916 5.65,98.991 17.687,146.154c14.021,54.945 41.596,107.55 111.667,98.571c67.742,-8.688 102.788,-44.688 106.838,-121.467c20.487,-388.488 75.029,-771.325 214.404,-1137.7c31.921,-83.904 63.733,-168.271 125.341,-236.429c27.65,-30.588 60.963,-64.467 103.263,-51.067c45.221,14.325 44.312,63.175 44.796,103.729c2.221,186.271 -40.663,367.717 -61.288,551.538c-33.779,301.079 -62.716,602.316 -74.841,928.237c70.037,-83.908 126.837,-151.579 183.22,-219.596c79.505,-95.912 159.192,-191.8 250.396,-276.912c25.834,-24.108 58.584,-72.767 91.009,-47.529c33.537,26.096 -5.396,68.962 -24.684,98.696c-97.733,150.675 -198.029,299.862 -324.887,428.283c-39.875,40.367 -54.429,78.842 -41.717,138.171c29.708,138.616 53.65,278.55 112.133,408.737c76.096,169.379 169.146,185.954 292.45,49.292c132.967,-147.375 238.825,-316.963 313.067,-497.771c45.413,-110.596 33.592,-244.462 48.738,-367.725c43.933,-357.442 121.054,-706.546 265.045,-1038.45c34.684,-79.95 73.421,-157.942 142.067,-215.433c26.483,-22.184 55.583,-48.317 93.063,-33.092c35.82,14.55 31.154,54.471 33.295,83.604c7.509,102.054 -17.583,201.171 -35.816,300.675c-83.396,455.063 -156.592,911.371 -174.329,1380.93c35.82,-10.216 33.487,-39.554 41.237,-59.95c53.596,-141.041 110.629,-280.408 206.792,-399.02c28.912,-35.659 60.858,-70.567 97.308,-97.992c47.138,-35.467 102.9,-61.15 161.313,-27.95c54.179,30.8 51.87,89.337 45.475,140.079c-18.796,149.113 -45.7,297.208 -64.217,446.346c-9.329,75.133 -41.263,178.367 39.246,212.854c72.204,30.929 129.962,-58.462 179.754,-112.179c96.529,-104.129 182.058,-215.413 230.808,-353.113c37.709,-106.504 96.121,-204.429 173.838,-288.354c137.083,-148.037 301.554,-164.791 453.858,-35.246c61.279,52.125 79.975,33.559 105.721,-25.116c25.779,-58.754 61.546,-111.792 116.054,-148.9c78.804,-53.65 129.196,-33.942 152.258,57.729c28.717,114.129 0.784,225.15 -23.045,334.612c-51.705,237.488 -96.9,475.85 -124.38,717.396c-5.479,48.188 -23.412,115.346 19.405,136.6c49.25,24.442 81.279,-40.412 111.829,-75.212c135.933,-154.83 252.733,-324.163 364.687,-496.663c49.734,-76.625 35.325,-168.583 47.346,-253.433c55.271,-390.225 137.254,-774.075 263.746,-1147.6c33.542,-99.055 80.212,-192.788 163.546,-261.73c24.471,-20.241 52.279,-42.137 86.3,-29.07c37.537,14.421 31.987,52.779 33.108,82.983c6.479,175.192 -41.637,343.913 -65.437,515.425c-68.792,495.717 -149.463,990.033 -158.521,1491.99c-0.721,40.22 5.25,80.645 9.487,120.825c2.371,22.466 1.734,49.95 28.554,57.925c25.917,7.708 43.121,-14.155 58.513,-30.259c76.258,-79.796 139.037,-170.279 204.404,-258.854c132.917,-180.104 250.675,-366.413 301.35,-589.512c19.742,-86.913 59.675,-169.475 119.658,-238.575c34.35,-39.571 73.638,-85.359 131.067,-67.48c59.742,18.596 59.183,80.671 61.713,131.946c6.366,129.109 -35.992,251.167 -59.563,375.9c-32.737,173.254 -70.637,345.759 -78.721,522.584c-1.362,29.779 -13.333,70.841 23.138,85.05c31.333,12.204 51.391,-21.959 69.212,-42.871c133.675,-156.867 259.413,-322.363 350.142,-505.725c60.187,-121.642 73.875,-266.121 109.571,-400.059c64.091,-240.483 146.858,-474.895 233.246,-708.05c25.362,-68.458 59.645,-132.354 118.745,-178.4c24.775,-19.304 52.655,-42.608 86.267,-27.108c33.592,15.483 33.567,50.575 34.85,82.875c5.375,135.063 -36.246,262.838 -61.012,393.175c-47.484,249.883 -97.446,499.3 -143.484,749.446c-25.554,138.85 37.629,212.533 180.834,219.208c131.4,6.121 275.479,-89.475 325.916,-214.991c48.763,-121.359 105.629,-238.45 193.975,-336.917c136.904,-152.592 303.663,-169.8 459.896,-37.504c57.171,48.408 75.188,36.5 100.825,-22.396c29.121,-66.892 68.867,-128.221 136.125,-164.188c68.183,-36.454 107.125,-19.104 130.604,55.242c31.992,101.296 9.584,201.067 -10.691,300.1c-52.171,254.883 -108.342,509.083 -131.38,768.804c-4.133,46.646 -25.787,115 21.288,134.421c47.325,19.521 79.921,-44.479 111.1,-79.979c136.033,-154.867 252.117,-324.696 363.992,-497.263c46.512,-71.741 31.266,-157.645 39.475,-236.77c39.837,-384.05 108.566,-761.105 250.791,-1121.91c31.825,-80.733 63.575,-162.479 117.346,-231.729c38.321,-49.354 82.067,-120.542 150.058,-91.696c56.38,23.921 41.659,102.788 33.392,157.992c-26.112,174.337 -58.696,347.696 -87.596,521.629c-59.229,356.488 -107.5,714.2 -121.171,1081.83c37.134,-10.095 33.9,-40.579 41.35,-60.537c47.73,-127.796 99.375,-253.688 180.3,-364.654c30.484,-41.792 64.163,-82.554 102.492,-117.004c48.421,-43.517 107.175,-77.534 173.833,-47.488c70.063,31.583 60.863,101.117 53.242,160.063c-17.408,134.654 -42.821,268.258 -62.071,402.704c-6.937,48.458 -8.833,98.241 -6.879,147.175c1.45,36.3 0.875,80.916 42.258,97.504c36.575,14.658 66.038,-13.504 93.334,-34.404c116.954,-89.55 195.746,-212.067 282.162,-328.038c26.784,-35.946 46.517,-79.658 93.392,-97.65c17.717,30.246 4.358,53.671 -8.567,75.734c-83.762,142.975 -176.029,280.266 -304.962,386.741c-148.546,122.667 -277.742,76.434 -316.584,-111.416c-26.595,-128.634 8.342,-252.675 36.009,-376.93c13.8,-61.991 26.608,-124.279 37.008,-186.908c3.654,-22.021 2.8,-48.592 -23.875,-58.921c-22.05,-8.537 -39.137,6.542 -53.1,21.229c-19.837,20.871 -41.283,41.421 -55.996,65.759c-145.033,239.887 -247.954,496.771 -298.108,772.787c-13.329,73.359 -5.488,150.3 -13.646,224.913c-12.862,117.666 -88.425,153.121 -188.854,90.5c-83.296,-51.938 -129.971,-127.509 -145.688,-225.363c-19.25,-119.846 -13.458,-241.358 -25.108,-362.262c-38.629,0.571 -42.254,32.608 -54.417,52.171c-95.162,153.054 -208.141,292.458 -324.866,429.058c-18.75,21.942 -39.35,42.554 -60.775,61.929c-170.946,154.617 -359.45,96.567 -406.263,-129.771c-42.591,-205.937 -3.571,-408.558 43.992,-609.346c6.287,-26.545 23.487,-51.933 5.058,-91.487c-79.254,106.371 -155.291,207.258 -230.05,309.087c-72,98.071 -142.275,197.742 -237.008,275.875c-40.029,33.017 -84.617,70.959 -140.492,43.592c-56.821,-27.829 -76.729,-82.975 -80.666,-144.137c-5.434,-84.425 4.233,-167.417 22.175,-256.996c0.137,-11.175 0.358,-15.054 -5.25,-18.713c-126.971,69.321 -254.25,89.329 -401.367,40.142c34.229,143.333 62.604,278.017 65.45,415.721c5.771,279.537 -46.979,546.55 -182.546,793.183c-32.458,59.05 -65.342,133.625 -150.279,124.854c-90.8,-9.379 -139.825,-78.471 -168.175,-157.712c-39.421,-110.192 -43.075,-226.963 -47.421,-342.538c-9.496,-252.221 16.567,-502.4 51.358,-753.116c-34.708,-4.167 -37.079,25.608 -48.166,41.183c-80.617,113.246 -162.359,225.558 -255.321,329.129c-38.758,43.179 -80.729,83.596 -135.163,106.917c-112.466,48.179 -215.254,3.704 -255.97,-115.375c-16.621,-48.6 -23.675,-101.317 -28.705,-152.779c-4.712,-48.28 -1.008,-97.371 -1.008,-146.484c-39.692,-5.879 -42.729,28.167 -55.85,46.642c-98.937,139.312 -195.175,280.996 -326.633,392.871c-155.929,132.696 -327.513,84.175 -394.521,-110.888c-37.042,-107.821 -47.088,-220.075 -47.933,-333.366c-0.23,-30.838 -0.034,-61.675 -0.034,-95.388c-38.521,6.454 -43.137,35.596 -55.896,55.321c-107.175,165.725 -226.37,322.1 -362.575,465.012c-76.254,80.005 -166.254,131.13 -279.458,89.313c-109.737,-40.542 -140.625,-137.983 -154.283,-242.529c-23.634,-180.9 5.658,-357.446 45.187,-533.159c6.613,-29.383 22.634,-58.566 2.821,-107.862c-67.817,89.379 -130.279,169.883 -190.746,251.862c-72.141,97.809 -140.1,199.405 -229.541,282.455c-49.496,45.958 -102.413,111.225 -179.771,74.883c-78.634,-36.938 -80.842,-121.05 -82.871,-196.713c-1.071,-39.966 7.587,-80.191 -4.521,-133.525c-37.592,41.58 -72.917,85.521 -113.296,124.188c-61.254,58.662 -134.708,99.067 -220.258,69c-88.929,-31.258 -106.363,-117.321 -117.458,-198.008c-16.067,-116.813 14.133,-229.842 40.15,-342.717c14.279,-61.963 27.245,-124.258 39.345,-186.688c4.525,-23.337 3.03,-49.495 -20.57,-61.408c-24.28,-12.254 -44.7,5.613 -61.067,21.721c-18.463,18.179 -37.175,37.396 -50.425,59.383c-149.117,247.496 -254.904,512.134 -303.983,797.359c-11.671,67.833 -3.363,138.87 -11.059,207.675c-12.754,114.008 -84.121,149.483 -182.429,91.17c-83.854,-49.737 -138.712,-123.204 -149.258,-222.066c-12.417,-116.384 -20.134,-233.263 -31.671,-371.25c-54.3,93.796 -96.858,171.058 -143.054,246.075c-47.042,76.408 -96.167,151.925 -168.329,208.241c-124.217,96.955 -259.484,71.205 -336.121,-66.904c-72.788,-131.162 -87.904,-279.875 -124.954,-422.075c-9.15,-35.116 12.658,-105.862 -43.575,-101.583c-55.255,4.204 -36.296,70.025 -35.05,110.321c4.737,153.233 15.945,306.3 18.908,459.541c1.35,69.742 14.908,160.405 -76.925,181.675c-86.842,20.113 -155.946,-35.141 -202.508,-106.158c-65.396,-99.742 -79.075,-216.446 -89.717,-331.496c-11.704,-126.583 -22.442,-253.696 -13.613,-381.154c3.342,-48.317 -3.608,-65.583 -61.375,-47.787c-146.941,45.258 -240.475,-23.334 -255.425,-180.475c-7.937,-83.459 -10.929,-167.384 -16.52,-251.071c-1.546,-23.138 -1.325,-50.804 -25.409,-60.792c-27.787,-11.529 -49.208,8.654 -67.866,27.583c-121.388,123.134 -187.488,277.58 -237.925,438.096c-63.396,201.767 -100.175,409.684 -121.409,620.238c-7.887,78.221 -24.054,154.954 -67.358,222.008c-50.617,78.379 -120.879,78.838 -172.888,1.192c-63.112,-94.221 -62.05,-202.688 -61.229,-309.859c0.525,-69.112 6.096,-138.191 9.55,-210.279c-38.779,11.096 -45.979,45.6 -62.783,70.034c-100.142,145.616 -201.225,290.37 -326.958,415.804c-65.959,65.804 -147.209,103.275 -236.28,72.904c-83.433,-28.446 -113.02,-107.121 -129.583,-191.538c-27.475,-140.033 -4.896,-276.4 18.346,-420.379c-5.821,-48.85 -23.867,-32.646 -46.329,-12.079c-79.338,102.554 -145.379,208.271 -236.096,294.825c-49.317,47.058 -105.263,78.592 -171.921,55.933c-61.187,-20.8 -81.312,-78.25 -87.112,-138.741c-23.688,-247.104 40.862,-474.521 157.575,-689.413c20.066,-36.946 54.462,-68.237 98.579,-56.166c48.746,13.337 44.929,62.475 43.941,102.179c-3.762,151.358 -58.066,294.258 -76.462,443.287c-5.663,45.871 -13.292,91.496 -18.875,137.371c-2.367,19.471 -9.888,44.713 10.408,55.675c25.934,14.004 41.384,-11.229 57.238,-26.967c76.383,-75.795 138.354,-163.033 197.625,-252.187c85.004,-127.854 155.646,-263.733 222.412,-401.767c25.221,-52.137 54.254,-102.212 95.109,-144.15c30.033,-30.829 67.312,-48.058 109.725,-39.637c46.929,9.321 48.308,54.321 55.054,89.566c22.404,116.98 -9.938,230.017 -34.096,342.371c-38.879,180.834 -75.067,361.904 -95.621,545.834c-1.925,17.233 -4.962,34.783 -3.525,51.85c2.533,30.025 -12.392,71.625 22.667,85.033c29.904,11.437 49.75,-24.288 68.1,-44.875c88.754,-99.579 156.425,-215.358 239.146,-319.133c132.15,-165.784 198.325,-354.33 230.516,-560.492c20.938,-134.058 57.117,-265.538 116.892,-388.496c34.65,-71.267 80.179,-158.35 166.533,-139.754c91.742,19.758 65.954,120.854 68.613,192.542c3.558,95.895 -19.317,189.379 -34.288,290.758c7.913,9.771 -3.658,25.529 14.829,21.662Z" style="fill:#f4d3c3;fill-rule:nonzero;"/><path d="M10113,4725.33c-149.613,173.438 -262.325,371.588 -422.184,532.563c-50.65,51.008 -103.633,118.333 -184.633,83.079c-83.912,-36.525 -85.842,-122.737 -84.092,-202.783c2.696,-123.05 38.363,-239.046 77.83,-354.092c11.004,-32.075 22.862,-63.858 40.108,-111.85c-147.608,49.95 -268.746,119.008 -386.013,194.638c-36.425,23.495 -22.395,68.925 -24.862,105.35c-28.846,426.141 -102.946,843.3 -246.988,1246.57c-59.245,165.884 -134.412,318.905 -295.262,414.821c-287.071,171.184 -573.05,22.688 -595.388,-311.296c-14.612,-218.483 68.346,-407.354 175.43,-588.933c139.445,-236.458 314.445,-443.804 523.383,-621.525c49.733,-42.3 76.787,-86.462 76.258,-153.487c-0.679,-86.509 8.379,-173.092 13.65,-266.913c-40.633,16.813 -42.571,51.45 -53.296,77.167c-56.158,134.625 -128.816,258.85 -222.445,370.941c-31.925,38.217 -66.613,72.838 -111.296,95.305c-127.775,64.245 -246.467,8.141 -278.154,-130.959c-6.35,-27.883 -11.425,-56.058 -19.138,-94.25c-76.308,102.638 -146.587,200.025 -220.012,294.979c-54.788,70.859 -109.384,142.909 -185.713,193.15c-127.617,84 -259.954,41.092 -301.783,-105.15c-47.388,-165.658 -23.334,-332.545 12.358,-497.75c37.925,-175.537 81.263,-349.754 168.175,-508.529c38.463,-70.266 84.388,-164.187 177.542,-136.216c92.229,27.687 70.004,131.683 58.887,204.308c-31.9,208.35 -75.479,414.887 -111.754,622.612c-12.412,71.084 -17.912,143.475 -24.212,215.475c-2.23,25.45 -2.275,57.963 24.379,69.013c28.058,11.637 47.8,-15.408 64.408,-34.4c107.038,-122.408 193.733,-259.742 286.896,-392.383c58.942,-83.917 98.954,-175.3 127.987,-273.388c21.296,-71.95 48.813,-143.654 109.05,-194.125c54.175,-45.387 88.463,-33.029 104.805,34.888c15.462,64.258 -2.759,126.4 -13.305,188.954c-18.245,108.271 -39.204,216.183 -53.575,324.966c-5.4,40.867 -10.958,94.025 36.163,115.121c49.496,22.159 80.296,-21.608 107.325,-54.162c179.212,-215.854 255.537,-475.838 315.65,-742.563c6.954,-30.871 11.783,-62.883 23.767,-91.816c22.025,-53.175 57.033,-94.08 120.225,-99.255c67.395,-5.52 109.1,32.442 139,85.617c48.058,85.463 58.445,180.921 65.037,276.271c4.988,72.158 5.633,144.65 6.963,217.017c0.629,34.45 2.091,60.437 47.658,34.329c123.117,-70.546 247.979,-137.575 386.671,-173.875c24.787,-6.488 33.229,-30.254 46.175,-49.209c30.937,-45.291 58.958,-93.287 94.816,-134.383c142.538,-163.362 307.225,-178.787 471.35,-39.075c52.792,44.938 69.209,32.554 91.205,-22.675c22.616,-56.783 58.308,-107.1 105.529,-146.896c84.487,-71.208 154.854,-46.862 172.808,61.434c15.867,95.708 1.029,190.95 -19.912,284.295c-52.555,234.271 -97.75,469.834 -126.8,708.155c-7.446,61.075 -38.521,151.608 15.816,177.041c61.492,28.784 102.654,-59.079 139.534,-105.871c162.708,-206.433 332.341,-408.729 422.583,-662.358c31.033,-87.217 79.95,-166.971 139.367,-239.108c138.562,-168.234 292.65,-190.434 471.858,-69.242c16.167,10.929 27.883,31.054 57.975,28.067c33.325,-154.729 65.092,-312.659 101.742,-469.442c37.491,-160.4 79.312,-319.971 138.666,-473.929c36.609,-94.954 81.067,-187.2 167.834,-248.063c61.116,-42.87 95.425,-26.783 108.091,46.309c12.138,70.037 -3.525,138.796 -14.75,206.983c-72.825,442.375 -137.275,885.879 -182.991,1331.93c-18.9,184.409 -31.209,369.313 -24.88,554.875c1.346,39.45 -5.279,91.525 37.225,107.284c39.496,14.637 65.075,-30.571 88.8,-57.571c136.117,-154.888 245.196,-329.296 357.655,-501.221c38.016,-58.121 75.887,-116.387 115.812,-173.192c14.021,-19.95 30.313,-55.337 56.85,-42.345c35.146,17.191 6.233,51.525 1.088,77.237c-4.434,22.146 -15.613,43.625 -26.971,63.604c-139.084,244.554 -292.9,478.967 -479.888,690.229c-17.187,19.417 -36.687,36.967 -56.266,54.067c-163.896,143.129 -344.763,92.963 -409.905,-116.446c-49.695,-159.746 -51.641,-325.025 -42.22,-490.325c5.583,-97.983 15.291,-195.725 23.941,-303.525c-70.508,67.879 -112.383,147.142 -166.129,216.884c-102.404,132.875 -191.771,275.841 -308.787,397.379c-6.025,6.258 -12.067,12.541 -18.538,18.325c-53.679,47.937 -107.046,115.079 -186.962,78.496c-73.692,-33.734 -82.825,-112.509 -82.084,-187.738c0.188,-19.033 0.025,-38.071 0.025,-80.467c-103.691,152.821 -202.675,279.375 -308.196,400.58c-32.12,36.895 -66.629,73.42 -105.908,102.091c-153.7,112.192 -324.317,48.738 -366.787,-136.846c-48.567,-212.233 -7.159,-419.808 40.204,-626.47c4.516,-19.717 9.554,-39.309 14.621,-65.817c4.212,-13.354 2.395,-17.988 -9.096,-20.488Z" style="fill:#f3d2c3;fill-rule:nonzero;"/><path d="M3452.22,9854c46.225,-369.167 92.616,-730.542 134.766,-1092.41c13.034,-111.884 17.084,-225.05 19.93,-337.763c1.029,-40.8 5.97,-95.125 -45.192,-111.637c-47.454,-15.321 -80.913,22.695 -109.913,54.995c-133.766,148.988 -217.487,326.696 -288.433,511.084c-122.871,319.325 -181.429,656.896 -277.275,983.929c-47.154,160.904 -90.237,323.287 -161.329,475.7c-31.304,67.117 -63.654,152.846 -157.608,133.892c-88.413,-17.838 -76.584,-109.455 -78.567,-173.434c-7.55,-243.404 19.142,-485.433 49.054,-726.587c51.963,-418.917 115.1,-836.059 228.071,-1243.83c22.337,-80.616 43.637,-162.608 92.6,-232.654c38.212,-54.662 87.475,-99.566 158.758,-83.704c69.65,15.504 89.363,77.908 96.479,140.246c18.321,160.483 -27.433,315.412 -45.154,472.788c-4.304,38.254 -9.958,76.354 -2.1,117.149c50.175,-83.387 98.259,-168.124 151.079,-249.799c60.171,-93.046 132.967,-176.246 226.28,-237.371c169.583,-111.084 310.541,-56.775 363.508,138.508c43.042,158.688 43.692,321.621 31.879,483.125c-32.358,442.454 -110.358,877.212 -240.042,1302c-12.6,41.267 -30.579,81.15 -48.995,120.296c-12.267,26.075 -28.409,54.979 -63.575,49.375c-33.367,-5.321 -43.4,-35.3 -50.409,-64.117c-34.533,-142.05 -1.8,-281.85 16.188,-429.783Z" style="fill:#f5d3c2;fill-rule:nonzero;"/><path d="M6750.47,4097.29c152.646,-204.513 311.1,-396.367 472.262,-586.084c17.371,-20.45 55.729,-39.079 39.009,-68.566c-13.609,-24 -52.234,-14.588 -80.375,-14.692c-194.942,-0.708 -384.163,50.817 -577.613,63.475c-48.875,3.2 -98.129,3.129 -147.075,1.204c-15.329,-0.604 -36.333,-3.691 -41.829,-24.196c-6.742,-25.17 11.517,-38.75 29.958,-46.37c55.942,-23.121 111.679,-48.23 169.771,-64.4c263.525,-73.363 530.65,-117.525 805.467,-84.525c31.412,3.77 63.058,9.662 93.229,18.987c142.417,44.021 172.304,132.95 85.642,254.817c-241.521,339.633 -483.596,678.875 -725.271,1018.4c-16.35,22.966 -31.196,47.004 -51.209,77.316c58.25,12.592 108.1,22.455 157.417,34.505c18.75,4.575 44.992,8.187 43.675,33.858c-1.329,25.879 -22.217,39.083 -47.908,41.879c-54.621,5.954 -109.679,18.796 -163.8,15.663c-66.996,-3.88 -104.7,24.858 -140.359,77.241c-131.908,193.784 -268.041,384.692 -401.675,577.309c-19.162,27.625 -44.8,52.629 -50.625,96.504c52.4,-0 102.542,-0.096 152.688,0.016c266.021,0.58 532.996,-20.658 796.871,30.513c48.825,9.467 122.821,13.212 117.121,77.446c-6.021,67.9 -81.821,50.912 -129.359,51.329c-243.054,2.137 -486.416,-13.971 -728.979,12.754c-86.125,9.492 -171.467,27.008 -257.721,34.221c-103.304,8.642 -142.379,-23.817 -163.996,-123.729c-23.591,-109.071 4.138,-213.021 35.588,-315.421c50.392,-164.088 129.754,-315.321 217.104,-462.217c28.454,-47.846 28.042,-66.204 -35.662,-73.991c-48.942,-5.984 -134.913,7.77 -133.492,-58.309c1.008,-46.933 87.083,-44.979 134.55,-41.466c109.258,8.091 171.725,-37.842 228.067,-129.888c88.92,-145.275 195.5,-279.75 298.529,-423.583Z" style="fill:#f5d3c2;fill-rule:nonzero;"/><path d="M9886.14,7439.04c-45.458,118.021 -105.833,220.758 -179.833,313.291c-67.892,84.896 5.95,126.75 45.404,174.675c42.154,51.205 98.888,56.809 152.613,9.667c19.541,-17.154 36.425,-37.346 56.05,-54.387c13.891,-12.067 27.212,-38.325 48.962,-20.934c18.171,14.529 6.35,37.775 -1.708,56.3c-76.313,175.438 -286.296,210.204 -421.396,64.134c-44.796,-48.43 -68.125,-53.184 -120.554,-10.613c-105.25,85.454 -227.879,97.738 -350.913,40.688c-147.862,-68.559 -204.029,-200.288 -213.983,-352.063c-18.662,-284.637 88.375,-519.962 299.875,-707.712c36.6,-32.492 47.038,-64.88 49.042,-111.371c6.737,-156.471 25.375,-311.204 99.8,-453.359c27.129,-51.816 60.916,-97.654 104.108,-137.512c66.538,-61.404 144.983,-76.192 225.558,-45.738c79.146,29.913 118.942,98.688 129.375,181.534c14.938,118.621 -12.375,229.671 -66.237,335.191c-52.917,103.667 -118.163,199.459 -196.442,284.909c-42.971,46.904 -57.491,96.271 -51.691,157.129c14.554,152.646 27.312,305.217 85.07,449.912c20.53,51.417 38.305,54.655 74.067,11.192c103.321,-125.554 168.975,-268.083 202.888,-426.196c4.679,-21.821 1.129,-47.162 28.616,-63.404c68.946,99.275 28.167,199.05 1.329,304.667Z" style="fill:#f3d2c3;fill-rule:nonzero;"/><path d="M7430.1,2402.5c19.787,13.217 33.916,23.454 49.054,31.888c106.675,59.45 164.825,42.837 213.025,-67.68c78.537,-180.07 153.346,-361.766 229.967,-542.675c18.904,-44.625 38.741,-88.858 58.391,-133.829c38.446,17.371 40.063,49.4 50.684,74.813c76.891,183.958 152.912,368.283 228.795,552.662c28.334,68.834 54.592,138.904 134.034,172.296l-285.809,0c53.442,-30.312 80.713,-65.121 48.938,-129.583c-31.738,-64.388 -38,-150.896 -145.996,-128.35c-24.975,5.212 -52.754,4.925 -77.883,0.1c-96.063,-18.45 -144.713,21.521 -176.292,113.016c-25.412,73.621 -26.375,117.396 60.275,141.084l-607.792,-0c92.017,-35.846 61.046,-77.934 18.025,-121.746c-78.962,-80.421 -157.091,-161.663 -254.225,-261.788c0,118.617 -2.6,212.046 1.009,305.234c2.062,53.321 52.104,59.883 90.937,81.35l-308.821,-0c105.884,-10.813 103.65,-89.009 103.738,-165.388c0.162,-144.725 0.121,-289.441 -0.046,-434.167c-0.146,-125.754 -0.392,-125.941 -117.887,-176.316l332.22,-0c-188.4,76.716 -61.579,233.6 -101.737,349.025c104.912,-77.467 201.304,-160.467 278.379,-263.029c41.838,-55.671 -27.596,-57.804 -55.204,-86.338l271.892,0c-148.042,67.346 -231.513,204.275 -346.705,304.725c-35.475,30.934 -31.908,51.513 0.575,82.513c102.588,97.887 202.388,198.691 308.459,302.183Z" style="fill:#e9d6e8;fill-rule:nonzero;"/><path d="M5291.47,2479.62c-77.225,-106.292 -150.809,-206.683 -221.246,-309.233c-22.629,-32.946 -48.888,-49.371 -86.438,-38.3c-40.616,11.975 -21.291,48.266 -22.941,73.912c-2.779,43.217 0.641,86.792 -0.271,130.184c-1.571,74.608 5.554,142.179 103.346,153.212l-310.392,0c102.675,-19.496 97.367,-97.171 96.183,-176.242c-2.212,-147.579 -2.037,-295.237 -0.012,-442.82c1.008,-73.7 0.142,-142.155 -104.563,-151.03c144.296,-9.112 281.334,-20.933 417.196,-0.362c110.004,16.658 170.159,79.883 178.138,171.179c9.466,108.304 -26.067,161.304 -140.284,209.75c-10.608,4.5 -20.695,10.242 -40.3,20.042c68.817,93.721 130.975,190.616 205.5,276.825c97.813,113.15 200.892,94.062 259.209,-41.879c86.612,-201.896 170.846,-404.809 256.879,-606.95c7.571,-17.792 7.646,-40.88 36.242,-54.313c28.783,13.858 30.825,48.813 41.862,75.129c80.496,191.95 159.329,384.596 238.421,577.134c24.808,60.387 53.421,116.762 125.779,141.404l-279.908,-0c53.65,-59.163 51.396,-165.171 -6.096,-236.704c-16.15,-20.092 -34.742,-17.288 -54.196,-17.521c-49.221,-0.588 -99.483,6.146 -147.45,-1.642c-81.992,-13.308 -118.029,23.592 -143.946,96.313c-38.246,107.295 -42.154,106.97 53.679,161.32c-149.829,1.188 -299.587,19.146 -454.391,-9.408Z" style="fill:#e9d6e8;fill-rule:nonzero;"/><path d="M10588,1708.75c37.541,1.063 68.071,8.754 95.079,2.117c181.05,-44.496 287.896,47.812 383.379,186.741c89.054,129.58 195.479,247.234 310.021,389.75c-0,-179.562 1.358,-333.662 -0.713,-487.716c-0.758,-56.179 -51.191,-61.646 -91.879,-83.234l248.704,0c-122.308,13.067 -95.908,106.963 -96.366,185.305c-1.054,179.425 -0.125,358.858 -0.729,538.283c-0.067,19.162 10.204,45.512 -11.421,55.675c-29.384,13.804 -38.354,-18.567 -51.275,-34.404c-138.988,-170.321 -276.738,-341.646 -415.175,-512.417c-12.229,-15.079 -20.204,-35.408 -51.617,-41.937c0,167.6 -2.004,333.345 1.192,498.995c0.991,51.25 46.329,66.35 90.008,83.113l-248.025,-0c26.238,-30.4 84.142,-17.654 91.2,-63.558c6.096,-39.625 7.133,-80.284 7.354,-120.5c0.796,-144.696 0.754,-289.4 0.113,-434.1c-0.367,-82.63 -69,-143.58 -159.559,-143.534c-82.454,0.038 -111.008,34.834 -111.325,138.217c-0.475,156.275 -0.345,312.554 -0.137,468.833c0.142,107.121 0.4,107.121 98.983,160.992l-309.575,-0c104.784,-21.908 100.609,-100.146 99.884,-178.792c-1.392,-150.479 -1.33,-300.983 -0.084,-451.462c0.588,-71 -4.758,-135.359 -96.121,-156.367l218.084,0Z" style="fill:#e9d6e8;fill-rule:nonzero;"/><path d="M8910.68,2082.58c52.529,64.746 101.092,124.759 163.279,201.605c0,-177.663 1.546,-334.446 -0.808,-491.167c-0.867,-57.742 -58.063,-52.283 -113.913,-77.508l270.309,-0c-107.463,18.75 -100.096,102.591 -100.209,181.795c-0.275,199.388 -0.091,398.775 -18.62,610.242c-163.146,-200.254 -326.288,-400.504 -504.434,-619.175c0,187.775 -1.083,351.367 0.571,514.933c0.6,59.184 53.158,64.663 94.379,86.275l-247.891,0c92.212,-20.295 100.2,-86.475 98.366,-163.812c-3.012,-127.25 -0.604,-254.625 -0.583,-381.95c0.025,-162.342 -0.038,-162.371 -146.133,-220.233c131.05,-41.059 199.908,-22.1 279.133,76.745c74.167,92.53 148.392,185.009 226.554,282.25Z" style="fill:#e9d6e8;fill-rule:nonzero;"/><path d="M8540.1,12126.5c-56.138,124.321 -109.325,242.45 -171.921,381.475c-76.05,-164.442 -143.958,-311.263 -211.863,-458.084c-5.762,1.138 -11.529,2.275 -17.291,3.417c-0,121.654 -0.559,243.308 0.291,364.958c0.313,44.446 38.371,48.975 69.663,65.68l-184.338,-0c55.809,-11.346 79.996,-48.509 73.625,-102.517c-18.583,-157.467 46.213,-326.846 -43.683,-474.979c120.446,-21.163 120.725,-21.292 179.538,106.387c49.491,107.434 98.229,215.221 156.333,342.654c55.167,-122.304 102.746,-228.483 150.921,-334.391c58.546,-128.704 58.766,-128.604 204.991,-117.2c-99.65,70.612 -95.141,530.583 13.446,582.025l-255.212,-0c62.537,-17.338 92.796,-39.079 92.912,-84.167c0.296,-115.221 0.096,-230.442 0.096,-350.25c-41.012,12.521 -38.467,47.583 -57.508,74.992Z" style="fill:#e9d6e8;fill-rule:nonzero;"/><path d="M12465.1,2495.5c-63.325,-0.054 -119.737,-0.054 -176.154,-0.054c71.15,-47.296 97.2,-115.704 125.65,-183.858c86.508,-207.213 174.908,-413.634 263.775,-623.213c44.325,28.404 48.704,71.779 63.812,107.321c76.8,180.671 151.221,362.354 225.996,543.883c24.617,59.759 48.717,119.329 119.909,147.825l-281.088,0c58.696,-49.783 61.425,-184.854 -0.45,-242.096c-10.654,-9.858 -31.529,-11.429 -47.829,-11.916c-49.142,-1.467 -99.121,4.987 -147.367,-1.725c-82.95,-11.538 -123.325,21.2 -149.254,100.087c-23.342,71.004 -46.425,128.263 55.792,143.888c-10.309,28.187 -30.229,17.854 -52.792,19.858Z" style="fill:#e9d6e8;fill-rule:nonzero;"/><path d="M9798.89,1828.5c-82.75,136.758 -96.92,278.096 -60.029,423.846c52.813,208.658 308.629,276.467 461.871,125.417c23.854,-23.509 36.717,-58.28 70.292,-72.609c16.137,21.034 0.279,33.729 -8.779,47.246c-88.988,132.804 -216.105,178.379 -369.442,155.017c-145.117,-22.113 -256.954,-133.963 -292.717,-285.334c-66.996,-283.562 128.025,-540.941 401.138,-530.462c41.387,1.587 81.666,9.121 117.271,27.742c48.787,25.512 90.266,30.695 132.604,-48.505c7.083,112.505 12.329,195.809 17.571,279.109c-61.825,-105.413 -122.005,-207.696 -258.938,-214.184c-80.467,-3.808 -155.617,16.5 -210.842,92.717Z" style="fill:#e9d6e8;fill-rule:nonzero;"/><path d="M11967.4,1902.54c0.005,153.237 -1.362,297.866 0.646,442.446c0.904,64.933 6.213,131.45 96.529,143.004l-300.25,-0c99.896,-20.946 95.355,-96.904 93.596,-176.529c-3.25,-147.434 0.913,-295.025 -2.321,-442.455c-0.766,-34.929 26.842,-84.962 -25.445,-104.029c-75.488,-27.533 -169.796,5.146 -198.767,63.3c-8.804,17.667 -13.963,37.15 -34.017,56.371c0,-45.55 -0.516,-91.104 0.163,-136.642c0.537,-36.262 25.937,-39.229 54.096,-39.187c176.5,0.25 353.012,1.267 529.491,-0.708c42.117,-0.471 57.179,16.408 56.767,55.095c-0.425,40.188 -0.096,80.388 -6.921,133.071c-28.562,-143.754 -132.083,-149.837 -233.417,-128.829c-65.312,13.542 -14.983,84.396 -30.15,135.092Z" style="fill:#f1dbe9;fill-rule:nonzero;"/><path d="M9211.31,11930.4c105.771,84.888 105.804,170.046 2.538,254.696c32.262,30.821 79.362,44.637 96.554,92.071c35.454,97.816 -35.417,200.466 -156.938,208.137c-115.133,7.271 -231.091,1.567 -351.883,-2.616c71.467,-11.375 75.958,-60.8 75.454,-115.142c-1.042,-112.867 -0.746,-225.746 -0.258,-338.621c0.229,-52.642 2.891,-105.637 -71.613,-121.867c138.771,-0.079 271.446,-26.62 406.146,23.342Z" style="fill:#e9d6e8;fill-rule:nonzero;"/><path d="M6650.14,12264.7c-45.512,147.187 -128.987,217.225 -269.65,223.146c-97.883,4.12 -196.083,0.791 -299.191,-3.925c64.054,-15.08 74.175,-57.563 72.816,-112.625c-2.92,-118.375 -1.475,-236.875 -0.625,-355.317c0.355,-49.054 0.267,-95.971 -69.962,-105.554c130.417,-10.321 255.204,-20.054 378.371,6.058c139.933,29.667 210.191,159.188 188.241,348.217Z" style="fill:#e9d6e8;fill-rule:nonzero;"/><path d="M10087.8,12437.1c14.3,35.196 48.338,24.655 75.096,48.13l-243.504,-0c76.712,-5.596 76.929,-60.005 76.533,-116.534c-0.804,-115.766 -1.325,-231.562 0.279,-347.316c0.746,-53.9 -6.258,-99.271 -74.854,-110.346c113.208,-13.338 223.275,-20.829 332.267,2.021c61.421,12.87 101.996,52.329 109.841,118.208c7.938,66.617 -10.1,124.35 -75.245,150.612c-49.767,20.067 -54.663,39.1 -21.696,78.963c64.85,78.429 102.816,182.704 225.346,217.329c-102.28,27.796 -174.955,17.692 -224.434,-75.979c-29.437,-55.738 -73.033,-103.971 -109.921,-155.821c-14.75,-20.729 -33.675,-33.362 -58.904,-24.567c-25.371,8.846 -18.658,33.296 -18.396,52.238c0.725,52.033 3.384,104.033 7.592,163.062Z" style="fill:#e6cee0;fill-rule:nonzero;"/><path d="M9809.56,11901.7c32.163,37.654 28.175,77.771 22.988,143.858c-47.759,-137.887 -147.642,-107.787 -235.555,-112.121c-38.32,-1.891 -52.437,15.4 -49.82,51.6c1.041,14.396 -3.35,29.904 0.495,43.246c13.005,45.142 -36.137,116.983 34.68,133.2c68.562,15.696 150.791,25.442 197.945,-82.121l0,209.809c-29.554,-42.059 -39.287,-84.48 -83.308,-86.155c-47.867,-1.82 -98.292,-19.604 -141.883,12.159c-17.359,12.641 -10.142,203.471 4.246,221.296c32.795,40.641 212.85,19.658 258.845,-29.096c17.184,-18.213 19.617,-49.521 49.88,-56.625c-17.275,138.454 -18.53,139.562 -146.242,139.416c-109.063,-0.129 -218.121,-0.029 -332.804,-7.804c58.996,-10.716 72.833,-46.133 72.104,-96.337c-1.854,-127.384 -1.883,-254.838 0.129,-382.221c0.792,-50.242 -15.679,-82.617 -67.412,-103.708c136.162,-0 272.325,-0 415.712,1.604Z" style="fill:#e6c7de;fill-rule:nonzero;"/><path d="M7825.6,12211.3c-60.471,-13.967 -135.696,-36.504 -160.946,5.712c-35.296,59.009 -14.25,140.175 -8.075,211.796c1.308,15.183 17.825,19.575 32.442,23.871c96.133,28.233 200.487,-8.3 264.558,-93.171c3.017,-3.992 9.792,-5.154 14.867,-7.529c-9.188,132.517 -13.825,137.317 -140.017,137.717c-109.308,0.345 -218.621,0.07 -333.854,-6.917c63.046,-13.617 71.725,-55.858 71.229,-106.279c-1.196,-121.567 -1.833,-243.184 0.246,-364.729c0.883,-51.588 -11.025,-89.996 -67.021,-111.521c130.917,-0 262.229,-6.096 392.617,2.208c82.554,5.258 30.083,79.433 44.595,125.658c-47.504,-126.683 -152.954,-89.154 -242.745,-94.137c-29.05,-1.613 -41.896,11.787 -41.467,41.004c0.725,49.196 0.029,98.417 -0.196,147.625c-0.083,18.35 4.038,32.525 23.65,41.054c62.417,27.138 162.908,-7.704 206.604,-83.271l0,199.292c-20.654,-27.308 -35.096,-46.404 -56.487,-68.383Z" style="fill:#e6c7de;fill-rule:nonzero;"/><path d="M7215.52,12504.5c-61.02,-4.704 -112.1,-55.15 -172.02,-3.012l-0,-191.708c31.704,15.633 28.745,48.416 40.637,70.795c32.092,60.417 82.317,86.971 148.671,86.125c47.404,-0.608 86.05,-19.487 101.85,-66.058c16.242,-47.85 -5.833,-85.762 -45.167,-111.875c-50.608,-33.596 -103.841,-63.204 -155.1,-95.858c-92.508,-58.934 -122.154,-130.125 -88.841,-209.846c32.079,-76.771 122.67,-114.563 221.762,-85.413c38.763,11.405 74.117,23.005 114.292,-1.583l-0,187.442c-33.025,-17.979 -29.646,-48.088 -40.067,-68.413c-29.35,-57.237 -73.917,-87.992 -138.379,-87.171c-40.879,0.517 -74.204,18.184 -89.983,56.729c-16.788,41.025 1.275,75.121 35.162,97.705c50.45,33.629 103.358,63.6 155.513,94.633c73.591,43.788 133.691,96.988 115.758,193.529c-15.871,85.438 -81.054,127.871 -204.088,133.979Z" style="fill:#e6cee0;fill-rule:nonzero;"/><path d="M6590.31,1873.38c0.008,158.638 2.488,309.275 -1.037,459.771c-1.738,74.279 8.625,133.412 95.7,154.525l-304.713,-0c95.738,-9.313 102.133,-76.863 101.767,-150.954c-0.754,-153.471 0.537,-306.95 -0.079,-460.421c-0.442,-109.783 -8.459,-121.108 -111.592,-163.242l313.529,0c-85.154,19.517 -97.167,80.959 -93.575,160.321Z" style="fill:#f1dbe9;fill-rule:nonzero;"/><path d="M11367.6,11890.9c17.521,2.8 30.167,2.475 39.85,7.667c108.254,58.008 134.158,159.641 137.888,270.208c4.087,121.025 -4.109,240.725 -121.909,313.167c-53.971,33.196 -110.675,26.146 -159.891,-17.729c-123.455,-110.055 -125.317,-421.188 -3.425,-532.042c28.958,-26.338 61.508,-42.342 107.487,-41.271Z" style="fill:#e9d6e8;fill-rule:nonzero;"/><path d="M5567.52,12131.7c123.655,-29.267 183.521,-8.917 221.842,77.683c39.029,88.2 -0.225,222.004 -79.2,269.963c-81.608,49.566 -186.658,17.508 -237.154,-72.367c-113.708,-202.392 45.696,-499.988 277.129,-517.288c11.142,-0.837 23.179,-3.5 32.95,16.638c-112.054,22.912 -188.358,88.329 -227.983,201.712c7.537,6.371 -5.784,23.896 12.416,23.659Z" style="fill:#e6cee0;fill-rule:nonzero;"/><path d="M12348.9,11899.8c25.583,0.325 43.446,1.783 35.288,28.125c-7.817,25.233 -16.192,50.604 -49.8,50.883c-31.759,0.263 -63.634,2.271 -95.246,0.23c-36.538,-2.355 -64.05,8.741 -71.875,46.029c-10,47.671 34.012,36.666 56.475,45.371c121.716,47.141 179.837,139.633 157.425,254.625c-20.513,105.241 -121.904,181.066 -235.475,175.87c-11.471,-0.52 -23.1,-1.37 -34.279,-3.804c-34.121,-7.425 -65.938,-25.116 -52.071,-63.362c13.7,-37.779 48.404,-22.517 73,-7.309c60.108,37.167 114.441,36.059 162.371,-19.091c58.487,-67.3 34.595,-177.13 -51.463,-230.217c-31.717,-19.567 -66.354,-38.2 -104.942,-36.979c-69.47,2.204 -61.183,-29.621 -35.058,-72.196c5.992,-9.762 12.529,-19.954 15.271,-30.837c29.867,-118.546 107.142,-159.296 230.379,-137.338Z" style="fill:#e6cee0;fill-rule:nonzero;"/><path d="M11970.6,12401.1c-10.208,73.538 -47.233,94.95 -114.242,90.013c-83.233,-6.129 -167.262,-1.467 -259.77,-1.467c12.975,-45.354 47.416,-63.275 71.4,-88c60.583,-62.446 122.07,-124.033 164.245,-201.179c50,-91.454 43.25,-179.237 -15.545,-221.262c-58.242,-41.63 -118.638,-20.784 -200.08,72.816c-0.133,-71.858 29.567,-123.491 87.559,-148.258c63.9,-27.292 130.996,-23.008 187.483,26.125c51.467,44.767 63.192,101.479 45.908,165.567c-24.316,90.162 -86.591,155.737 -145.875,223.074c-24.766,28.134 -50.783,55.167 -82.145,89.101c94.566,30.041 178.987,9.733 261.062,-6.53Z" style="fill:#e6cee0;fill-rule:nonzero;"/><path d="M10918.9,12314.4c-30.483,33.891 -56.837,63.133 -92.808,103.037c99.617,0.95 186.283,23.692 268.5,-35.95c-5.004,79.892 -32.025,119.025 -117.292,109.975c-82.25,-8.733 -166.154,-1.891 -268.375,-1.891c61.3,-64.959 109.821,-116.192 158.13,-167.617c39.816,-42.383 74.633,-88.483 99.287,-141.375c41.842,-89.75 28.392,-178.796 -36.704,-208.388c-81.754,-37.162 -136.633,4.684 -183.704,72.2c2.079,-53.933 13.987,-103.754 65.379,-132.037c62.992,-34.663 128.867,-32.992 189.379,5.783c53.246,34.125 75.446,86.975 66.246,149.625c-14.675,99.913 -79.646,170.975 -148.038,246.638Z" style="fill:#e6cee0;fill-rule:nonzero;"/><path d="M6794.14,12221.5c-0.125,-73.95 -0.441,-140.408 -0.237,-206.87c0.154,-49.734 -11.292,-91.355 -68.392,-109.363l220.563,0c-70.35,16.862 -66.442,70.433 -66.129,123.325c0.683,115.579 1.525,231.187 -0.421,346.737c-0.921,54.538 4.687,99.763 73.946,108.155l-233.98,-0c131.434,-52.913 54.271,-167.942 74.65,-261.984Z" style="fill:#e6cee0;fill-rule:nonzero;"/><path d="M11442,8861.04c-10.275,-72.313 -25.713,-137.534 -19.788,-204.392c2.071,-23.392 -13.975,-59.887 21.988,-65.283c32.412,-4.863 34.246,32.721 45.629,54.512c5.167,9.892 7.887,21.063 14.908,40.488c36.267,-28.921 68.796,-55.075 101.584,-80.892c11.4,-8.975 23.916,-17.946 38.958,-9.158c17.912,10.471 19.275,27.245 13.096,45.083c-31.696,91.525 -84.788,170.212 -149.813,240.642c-25,27.07 -51.016,24.579 -66.562,-21Z" style="fill:#e8cbbd;fill-rule:nonzero;"/><path d="M7704.89,3968.71c-0.233,-10.541 -0.575,-13.508 -0.016,-16.287c6.841,-34.046 -21.642,-88.2 24.337,-97.738c41.788,-8.67 34.559,50.067 52.134,77.005c3.095,4.745 7.466,8.658 13.72,15.758c30.042,-25.892 59.696,-52.221 90.271,-77.433c12.909,-10.646 27.146,-24.271 45.746,-12.071c17.508,11.479 15.871,29.116 9.975,46.246c-31.483,91.487 -84.075,170.275 -150.233,239.65c-32.45,34.025 -56.929,20.491 -64.688,-22.263c-8.729,-48.083 -14.104,-96.775 -21.246,-152.867Z" style="fill:#e8cbbd;fill-rule:nonzero;"/><path d="M4507.1,9722.67c11.716,-31.588 29.779,-63.538 49.929,-99.179c29.296,35.212 6.479,61.754 -3.279,94.904c-15.079,5.254 -27.692,4.579 -46.65,4.275Z" style="fill:#775a62;fill-rule:nonzero;"/><path d="M9366.76,9442.08c-108.158,143.08 -212.154,281.546 -317.395,419.059c-20.959,27.379 -45.742,52.087 -70.555,76.183c-20.291,19.708 -44.866,51.371 -71.525,39.15c-37.937,-17.387 -14.004,-55.917 -7.904,-84.925c42.967,-204.379 105.55,-402.237 216.15,-580.887c112.767,-182.159 233.184,-209.392 427.225,-100.638c-57.687,76.046 -114.975,151.579 -175.996,232.058Z" style="fill:#472f45;fill-rule:nonzero;"/><path d="M12882.5,9463.83c42.862,-92.666 84.641,-178.558 154.733,-246.058c88.463,-85.2 229.025,-95.7 328.188,-28.583c25.937,17.554 17.679,30.871 4.154,48c-180.746,228.896 -338.884,475.204 -533.684,693.208c-20.566,23.013 -48.837,57.267 -78.237,43.629c-39.104,-18.141 -15.792,-62.687 -9.713,-92.992c28.459,-141.787 76.53,-277.77 134.559,-417.204Z" style="fill:#472f45;fill-rule:nonzero;"/><path d="M12188.6,9798.42c69.783,268.254 44.616,629.841 -73.863,897.696c0,-103.034 -1.896,-206.113 0.529,-309.092c2.442,-103.729 7.717,-207.454 14.434,-311.008c6.9,-106.346 17.05,-212.48 25.775,-318.7c26.541,-0.517 26.679,19.141 33.125,41.104Z" style="fill:#472f45;fill-rule:nonzero;"/><path d="M5721.27,9221.75c-0.183,16.283 -4.75,29.104 -17.52,64.929c-0,-37.708 -0,-51.191 1.945,-69.671c5.025,-2.9 8.109,-0.808 15.575,4.742Z" style="fill:#422b45;fill-rule:nonzero;"/><path d="M9458.56,9479.04c-0.7,-10.538 -5.142,-30.013 10.6,-21.759c13.75,7.209 2.217,17.746 -10.6,21.759Z" style="fill:#422b45;fill-rule:nonzero;"/><path d="M12634.2,9665.79c6.479,-9.375 17.187,-20.067 11.754,6.033c-3.454,2.308 -9.063,-3.179 -11.754,-6.033Z" style="fill:#422b45;fill-rule:nonzero;"/><path d="M8692.1,5638.17c-33.963,236.333 -69.35,464.641 -118.759,690.529c-13.062,59.729 -32.916,116.712 -65.833,168.775c-104.512,165.296 -285.7,161.229 -378.658,-10.933c-60.75,-112.513 -59.634,-235.509 -34.388,-355.538c64.867,-308.383 249.775,-548.7 453.75,-777.133c55.688,-62.359 109.534,-126.363 178.492,-180.496c12.904,160.537 -14.404,308.504 -34.604,464.796Z" style="fill:#442d45;fill-rule:nonzero;"/><path d="M9712.1,5111.42c-38.121,39.912 -71.596,75.796 -106.809,109.887c-12.162,11.775 -28.837,22.35 -47.095,14.917c-21.134,-8.604 -15.98,-30.358 -12.942,-44.975c52.008,-250.075 116.337,-496.763 283.979,-698.313c87.667,-105.395 226.546,-115.112 338.296,-43.058c41.083,26.492 9.754,44.138 -2.904,61.063c-148.854,199.075 -298.859,397.295 -452.525,600.479Z" style="fill:#472f45;fill-rule:nonzero;"/><path d="M10971.2,5214.29c42.621,-247.946 114.179,-479.079 255.683,-681.9c95.605,-137.038 208.759,-160.434 355.484,-87.425c28.521,14.187 42.05,25.029 17.279,55.854c-181.146,225.417 -335.954,471.421 -533.554,683.792c-21.992,23.633 -43.671,75.283 -94.892,29.679Z" style="fill:#472f45;fill-rule:nonzero;"/><path d="M10111.6,4729.21c2.909,-10.47 3.371,-26.216 17.721,-20.85c2.804,1.05 0.571,15.542 -3.196,27.217c-6.258,1.246 -8.654,-0.892 -14.525,-6.367Z" style="fill:#422b45;fill-rule:nonzero;"/><path d="M9130.56,7802.75c-34.908,-212.717 36.458,-389.104 160.292,-577.408c6.504,66.912 9.491,110.862 15.254,154.446c18.292,138.437 58.117,270.412 127.437,391.987c20.109,35.267 18.9,56.821 -19.037,74.696c-31.225,14.712 -60,35.067 -91.908,47.783c-95.434,38.025 -137.717,18.296 -192.038,-91.504Z" style="fill:#472f45;fill-rule:nonzero;"/><path d="M9506.81,6456.21c20.067,-55.595 41.275,-102.812 79.171,-140.429c23.417,-23.241 48.842,-42.633 84.15,-27.771c33.933,14.284 42.5,45.805 45.337,77.967c4.267,48.371 -17.404,90.188 -40.829,130.008c-54.937,93.392 -113.275,184.409 -208.462,266.35c-4.134,-112.333 5.937,-207.245 40.633,-306.125Z" style="fill:#472f45;fill-rule:nonzero;"/><path d="M8063.6,2131.62c4.621,22.883 30.258,44.4 -7.292,52.238c-5.554,1.158 -11.562,-0.088 -17.271,0.558c-213.162,24.008 -217.779,18 -135.229,-178.042c15.208,-36.112 31.15,-71.921 54.513,-125.746c38.979,92.675 70.925,168.625 105.279,250.992Z" style="fill:#472f45;fill-rule:nonzero;"/><path d="M4958.97,1903c14.637,-52.371 -34.788,-121.687 37.779,-140.217c71.642,-18.287 147.5,-8.112 191.671,63.063c39.512,63.667 39.125,132.308 -10.113,193.021c-45.287,55.841 -110.646,68.375 -178.1,72.15c-44.579,2.496 -40.608,-30.184 -40.825,-59.004c-0.3,-40.255 -0.287,-80.513 -0.412,-129.013Z" style="fill:#4c2d4f;fill-rule:nonzero;"/><path d="M5842.68,1975.96c14.45,-31.341 26.829,-56.633 44.208,-92.137c38.438,91.121 73.384,172.9 107.392,255.062c14.208,34.325 -1,48.034 -35.525,45.655c-2.875,-0.2 -5.783,-0.117 -8.662,0.066c-201.013,12.896 -201.013,12.896 -107.413,-208.646Z" style="fill:#472f45;fill-rule:nonzero;"/><path d="M12725.6,2042.71c18.525,46.013 34.738,85.717 54.238,133.475c-84.092,15.096 -161.779,8.1 -250.842,4.559c41.909,-99.171 80.417,-190.292 127.175,-300.95c27.592,64.387 47.354,110.496 69.429,162.916Z" style="fill:#472f45;fill-rule:nonzero;"/><path d="M9038.56,12205.1c33.338,3.58 60.421,3.33 84.35,11.884c55.763,19.937 92.913,55.629 91.4,121.379c-1.554,67.717 -44.417,98.129 -101.312,111.137c-32.938,7.534 -68.742,2.167 -103.225,3.442c-37.3,1.375 -51.275,-17.825 -50.671,-52.95c0.696,-40.421 3.346,-81.229 -0.938,-121.217c-6.141,-57.362 16.154,-80.92 80.396,-73.675Z" style="fill:#472f45;fill-rule:nonzero;"/><path d="M9053.56,12172.3c-74.008,9.567 -106.829,-15.266 -94.987,-85.829c0.945,-5.633 -1.359,-12.046 0.35,-17.279c15.766,-48.183 -45.2,-131.846 64.583,-136.804c94.142,-4.25 164.792,38.617 172.604,107.967c8.683,77.116 -27.65,112.558 -142.55,131.945Z" style="fill:#4c2d4f;fill-rule:nonzero;"/><path d="M6463.18,11981.4c104.867,97.383 112.146,211.517 71.133,330.917c-38.337,111.6 -128.966,157.391 -246.887,142.029c-38.408,-5.008 -47.442,-20.333 -47.146,-54.846c1.138,-132.975 2.183,-266 -0.542,-398.929c-0.962,-47.096 21.338,-61.129 61.438,-62.504c55.9,-1.917 109.783,4.479 162.004,43.333Z" style="fill:#442d45;fill-rule:nonzero;"/><path d="M10256.3,12003.2c14.992,43.225 16.559,80.038 -4.22,114.696c-33.942,56.621 -93.259,75.896 -148.967,66.213c-45.992,-7.996 -15.775,-63.3 -23.363,-96.709c-1.866,-8.225 -2.204,-17.77 0.042,-25.791c11.338,-40.517 -31.95,-101.2 31.254,-120.267c55.288,-16.675 108.496,3.092 145.254,61.858Z" style="fill:#472f45;fill-rule:nonzero;"/><path d="M11414.9,11953.8c65.492,147.225 52.317,292.05 20.08,436.646c-8.855,39.704 -29.75,77.712 -79.588,77.708c-46.817,-0.004 -61.742,-37.871 -72.975,-73.475c-42.846,-135.791 -40.425,-272.816 3.992,-406.933c19.95,-60.233 61.516,-92.921 128.491,-33.946Z" style="fill:#472f45;fill-rule:nonzero;"/><path d="M5663.77,12175.5c69.963,72.996 77.288,154.129 46.171,237.05c-27.637,73.658 -101.312,80.616 -148.321,17.154c-50.679,-68.413 -51.566,-150.183 -27.695,-223.358c15.316,-46.955 72.195,-60.492 129.845,-30.846Z" style="fill:#472f45;fill-rule:nonzero;"/><path d="M5566.68,12129.5c-9.975,12.646 -20.325,13.354 -15.762,-11.579c5.52,-0.771 8.595,2.637 15.762,11.579Z" style="fill:#422b45;fill-rule:nonzero;"/></svg>