<?xml version="1.0" encoding="UTF-8" standalone="no"?><!DOCTYPE svg PUBLIC "-//W3C//DTD SVG 1.1//EN" "http://www.w3.org/Graphics/SVG/1.1/DTD/svg11.dtd"><svg width="100%" height="100%" viewBox="0 0 12989 7776" version="1.1" xmlns="http://www.w3.org/2000/svg" xmlns:xlink="http://www.w3.org/1999/xlink" xml:space="preserve" xmlns:serif="http://www.serif.com/" style="fill-rule:evenodd;clip-rule:evenodd;stroke-linejoin:round;stroke-miterlimit:2;"><rect x="-5483.14" y="-13287" width="23829.7" height="33520.8" style="fill:#422b45;"/><path d="M3234.71,5964.3c51.175,-70.034 85.779,-147.329 141.796,-210.917c31.096,-35.3 64.75,-67.075 107.95,-85.662c76.671,-32.996 123.796,-7.984 151.021,74.345c20.483,61.925 14.45,126.038 20.321,189.188c4.55,48.917 5.65,98.992 17.687,146.154c14.021,54.946 41.596,107.55 111.667,98.571c67.741,-8.688 102.787,-44.688 106.837,-121.467c20.488,-388.487 75.029,-771.325 214.404,-1137.7c31.921,-83.904 63.734,-168.271 125.342,-236.429c27.65,-30.587 60.963,-64.467 103.263,-51.067c45.22,14.325 44.312,63.175 44.795,103.73c2.221,186.27 -40.662,367.716 -61.287,551.537c-33.779,301.079 -62.717,602.317 -74.842,928.238c70.038,-83.909 126.838,-151.58 183.221,-219.596c79.504,-95.913 159.192,-191.8 250.396,-276.913c25.833,-24.108 58.583,-72.766 91.008,-47.529c33.538,26.096 -5.396,68.963 -24.683,98.696c-97.733,150.675 -198.029,299.862 -324.888,428.283c-39.875,40.367 -54.429,78.842 -41.716,138.171c29.708,138.617 53.65,278.55 112.133,408.738c76.096,169.379 169.146,185.954 292.45,49.291c132.967,-147.375 238.825,-316.962 313.067,-497.771c45.412,-110.595 33.591,-244.462 48.737,-367.725c43.934,-357.441 121.054,-706.545 265.046,-1038.45c34.683,-79.95 73.421,-157.941 142.067,-215.433c26.483,-22.183 55.583,-48.317 93.062,-33.092c35.821,14.55 31.154,54.471 33.296,83.604c7.508,102.055 -17.583,201.171 -35.817,300.675c-83.395,455.063 -156.591,911.371 -174.329,1380.93c35.821,-10.217 33.488,-39.554 41.238,-59.95c53.596,-141.042 110.629,-280.409 206.791,-399.021c28.913,-35.658 60.859,-70.567 97.309,-97.992c47.137,-35.466 102.9,-61.15 161.312,-27.95c54.179,30.8 51.871,89.338 45.475,140.079c-18.796,149.113 -45.7,297.209 -64.216,446.346c-9.33,75.134 -41.263,178.367 39.245,212.854c72.205,30.93 129.963,-58.462 179.755,-112.179c96.529,-104.129 182.058,-215.412 230.808,-353.112c37.708,-106.504 96.121,-204.429 173.837,-288.354c137.084,-148.038 301.555,-164.792 453.859,-35.246c61.279,52.125 79.975,33.558 105.721,-25.117c25.779,-58.754 61.545,-111.792 116.054,-148.9c78.804,-53.65 129.196,-33.942 152.258,57.729c28.717,114.129 0.783,225.15 -23.046,334.613c-51.704,237.487 -96.9,475.85 -124.379,717.396c-5.479,48.187 -23.412,115.345 19.404,136.6c49.25,24.441 81.279,-40.413 111.829,-75.213c135.934,-154.829 252.734,-324.162 364.688,-496.662c49.733,-76.625 35.325,-168.584 47.346,-253.434c55.271,-390.225 137.254,-774.075 263.746,-1147.6c33.541,-99.054 80.212,-192.787 163.545,-261.729c24.471,-20.242 52.28,-42.138 86.3,-29.071c37.538,14.421 31.988,52.779 33.109,82.983c6.479,175.192 -41.638,343.913 -65.438,515.425c-68.791,495.717 -149.462,990.034 -158.521,1491.99c-0.72,40.221 5.25,80.646 9.488,120.825c2.371,22.467 1.733,49.95 28.554,57.925c25.917,7.708 43.121,-14.154 58.513,-30.258c76.258,-79.796 139.037,-170.28 204.404,-258.855c132.916,-180.104 250.675,-366.412 301.35,-589.512c19.741,-86.913 59.675,-169.475 119.658,-238.575c34.35,-39.571 73.638,-85.358 131.067,-67.479c59.741,18.596 59.183,80.671 61.712,131.946c6.367,129.108 -35.991,251.166 -59.562,375.9c-32.738,173.254 -70.638,345.758 -78.721,522.583c-1.363,29.779 -13.333,70.842 23.137,85.05c31.334,12.204 51.392,-21.958 69.213,-42.871c133.675,-156.867 259.412,-322.362 350.142,-505.725c60.187,-121.642 73.875,-266.121 109.57,-400.058c64.092,-240.484 146.859,-474.896 233.246,-708.05c25.363,-68.459 59.646,-132.354 118.746,-178.4c24.775,-19.304 52.654,-42.609 86.267,-27.109c33.591,15.484 33.566,50.575 34.85,82.875c5.375,135.063 -36.246,262.838 -61.013,393.175c-47.483,249.884 -97.446,499.3 -143.483,749.446c-25.554,138.85 37.629,212.534 180.833,219.209c131.4,6.12 275.479,-89.475 325.917,-214.992c48.762,-121.358 105.629,-238.45 193.975,-336.917c136.904,-152.591 303.662,-169.8 459.896,-37.504c57.171,48.408 75.187,36.5 100.825,-22.396c29.121,-66.891 68.866,-128.221 136.125,-164.187c68.183,-36.454 107.125,-19.104 130.604,55.241c31.992,101.296 9.583,201.067 -10.692,300.1c-52.171,254.884 -108.341,509.084 -131.379,768.805c-4.133,46.645 -25.787,115 21.288,134.42c47.325,19.521 79.92,-44.479 111.1,-79.979c136.033,-154.866 252.116,-324.696 363.991,-497.262c46.513,-71.742 31.267,-157.646 39.475,-236.771c39.838,-384.05 108.567,-761.104 250.792,-1121.91c31.825,-80.734 63.575,-162.48 117.346,-231.73c38.321,-49.354 82.066,-120.541 150.058,-91.695c56.379,23.92 41.658,102.787 33.392,157.991c-26.113,174.338 -58.696,347.696 -87.596,521.629c-59.229,356.488 -107.5,714.2 -121.171,1081.83c37.133,-10.096 33.9,-40.579 41.35,-60.538c47.729,-127.796 99.375,-253.687 180.3,-364.654c30.483,-41.792 64.163,-82.554 102.492,-117.004c48.421,-43.517 107.175,-77.533 173.833,-47.488c70.063,31.584 60.863,101.117 53.242,160.063c-17.409,134.654 -42.821,268.258 -62.071,402.704c-6.938,48.458 -8.833,98.242 -6.879,147.175c1.45,36.3 0.875,80.917 42.258,97.504c36.575,14.659 66.038,-13.504 93.333,-34.404c116.955,-89.55 195.746,-212.067 282.163,-328.037c26.783,-35.946 46.517,-79.659 93.392,-97.65c17.716,30.245 4.358,53.67 -8.567,75.733c-83.763,142.975 -176.029,280.267 -304.963,386.742c-148.545,122.666 -277.741,76.433 -316.583,-111.417c-26.596,-128.633 8.342,-252.675 36.008,-376.929c13.8,-61.992 26.609,-124.279 37.009,-186.909c3.654,-22.02 2.8,-48.591 -23.875,-58.92c-22.05,-8.538 -39.138,6.541 -53.1,21.229c-19.838,20.871 -41.284,41.421 -55.996,65.758c-145.033,239.888 -247.954,496.771 -298.108,772.788c-13.33,73.358 -5.488,150.3 -13.646,224.912c-12.863,117.667 -88.425,153.121 -188.854,90.5c-83.296,-51.937 -129.971,-127.508 -145.688,-225.362c-19.25,-119.846 -13.458,-241.359 -25.108,-362.263c-38.629,0.571 -42.254,32.608 -54.417,52.171c-95.162,153.054 -208.142,292.458 -324.867,429.058c-18.75,21.942 -39.35,42.554 -60.775,61.929c-170.945,154.617 -359.45,96.567 -406.262,-129.77c-42.592,-205.938 -3.571,-408.559 43.992,-609.346c6.287,-26.546 23.487,-51.934 5.058,-91.488c-79.254,106.371 -155.292,207.259 -230.05,309.088c-72,98.071 -142.275,197.741 -237.008,275.875c-40.03,33.016 -84.617,70.958 -140.492,43.591c-56.821,-27.829 -76.729,-82.975 -80.667,-144.137c-5.433,-84.425 4.234,-167.417 22.175,-256.996c0.138,-11.175 0.359,-15.054 -5.25,-18.712c-126.971,69.32 -254.25,89.329 -401.366,40.141c34.229,143.334 62.604,278.017 65.45,415.721c5.77,279.538 -46.98,546.55 -182.546,793.183c-32.459,59.05 -65.342,133.625 -150.279,124.855c-90.8,-9.38 -139.825,-78.471 -168.175,-157.713c-39.421,-110.192 -43.075,-226.962 -47.421,-342.537c-9.496,-252.221 16.566,-502.4 51.358,-753.117c-34.708,-4.167 -37.079,25.608 -48.167,41.183c-80.616,113.246 -162.358,225.559 -255.32,329.129c-38.759,43.18 -80.73,83.596 -135.163,106.917c-112.467,48.179 -215.254,3.704 -255.971,-115.375c-16.621,-48.6 -23.675,-101.317 -28.704,-152.779c-4.712,-48.279 -1.008,-97.371 -1.008,-146.483c-39.692,-5.88 -42.729,28.166 -55.85,46.641c-98.938,139.313 -195.175,280.996 -326.634,392.871c-155.929,132.696 -327.512,84.175 -394.52,-110.887c-37.042,-107.821 -47.088,-220.075 -47.934,-333.367c-0.229,-30.838 -0.033,-61.675 -0.033,-95.388c-38.521,6.455 -43.138,35.596 -55.896,55.321c-107.175,165.725 -226.371,322.1 -362.575,465.013c-76.254,80.004 -166.254,131.129 -279.458,89.312c-109.738,-40.541 -140.625,-137.983 -154.284,-242.529c-23.633,-180.9 5.659,-357.446 45.188,-533.158c6.612,-29.384 22.633,-58.567 2.821,-107.863c-67.817,89.379 -130.279,169.884 -190.746,251.863c-72.142,97.808 -140.1,199.404 -229.542,282.454c-49.496,45.958 -102.412,111.225 -179.771,74.883c-78.633,-36.937 -80.841,-121.05 -82.87,-196.712c-1.071,-39.967 7.587,-80.192 -4.521,-133.525c-37.592,41.579 -72.917,85.521 -113.296,124.187c-61.254,58.663 -134.708,99.067 -220.258,69c-88.93,-31.258 -106.363,-117.321 -117.459,-198.008c-16.066,-116.813 14.134,-229.842 40.15,-342.717c14.279,-61.962 27.246,-124.258 39.346,-186.687c4.525,-23.338 3.029,-49.496 -20.571,-61.409c-24.279,-12.254 -44.7,5.613 -61.066,21.721c-18.463,18.179 -37.175,37.396 -50.425,59.384c-149.117,247.495 -254.905,512.133 -303.984,797.358c-11.671,67.833 -3.362,138.871 -11.058,207.675c-12.754,114.008 -84.121,149.483 -182.429,91.171c-83.854,-49.738 -138.713,-123.204 -149.259,-222.067c-12.416,-116.383 -20.133,-233.262 -31.67,-371.25c-54.3,93.796 -96.859,171.058 -143.055,246.075c-47.041,76.408 -96.166,151.925 -168.329,208.242c-124.216,96.954 -259.483,71.204 -336.121,-66.904c-72.787,-131.163 -87.904,-279.875 -124.954,-422.075c-9.15,-35.117 12.659,-105.863 -43.575,-101.584c-55.254,4.204 -36.296,70.025 -35.05,110.321c4.738,153.233 15.946,306.3 18.909,459.542c1.35,69.741 14.908,160.404 -76.925,181.675c-86.842,20.112 -155.946,-35.142 -202.509,-106.159c-65.396,-99.741 -79.075,-216.445 -89.716,-331.495c-11.705,-126.584 -22.442,-253.696 -13.613,-381.155c3.342,-48.316 -3.608,-65.583 -61.375,-47.787c-146.942,45.258 -240.475,-23.333 -255.425,-180.475c-7.937,-83.458 -10.929,-167.383 -16.521,-251.071c-1.546,-23.137 -1.325,-50.804 -25.408,-60.792c-27.788,-11.529 -49.208,8.655 -67.867,27.584c-121.387,123.133 -187.487,277.579 -237.925,438.096c-63.396,201.766 -100.175,409.683 -121.408,620.237c-7.888,78.221 -24.054,154.954 -67.358,222.008c-50.617,78.38 -120.88,78.838 -172.888,1.192c-63.112,-94.221 -62.05,-202.687 -61.229,-309.858c0.525,-69.113 6.096,-138.192 9.55,-210.279c-38.779,11.095 -45.979,45.6 -62.783,70.033c-100.142,145.617 -201.225,290.371 -326.959,415.804c-65.958,65.804 -147.208,103.275 -236.279,72.904c-83.433,-28.446 -113.021,-107.121 -129.583,-191.537c-27.475,-140.034 -4.896,-276.4 18.346,-420.379c-5.821,-48.85 -23.867,-32.646 -46.33,-12.08c-79.337,102.555 -145.379,208.271 -236.095,294.825c-49.317,47.059 -105.263,78.592 -171.921,55.934c-61.188,-20.8 -81.313,-78.25 -87.113,-138.742c-23.687,-247.104 40.863,-474.521 157.575,-689.412c20.067,-36.946 54.463,-68.238 98.579,-56.167c48.746,13.337 44.93,62.475 43.942,102.179c-3.762,151.358 -58.067,294.258 -76.462,443.288c-5.663,45.87 -13.292,91.495 -18.875,137.37c-2.367,19.471 -9.888,44.713 10.408,55.675c25.933,14.005 41.383,-11.229 57.237,-26.966c76.384,-75.796 138.355,-163.034 197.625,-252.188c85.005,-127.854 155.646,-263.733 222.413,-401.766c25.221,-52.138 54.254,-102.213 95.108,-144.15c30.034,-30.83 67.313,-48.059 109.725,-39.638c46.929,9.321 48.309,54.321 55.054,89.567c22.405,116.979 -9.937,230.016 -34.095,342.371c-38.88,180.833 -75.067,361.904 -95.621,545.833c-1.925,17.233 -4.963,34.783 -3.525,51.85c2.533,30.025 -12.392,71.625 22.666,85.033c29.905,11.438 49.75,-24.287 68.1,-44.875c88.755,-99.579 156.425,-215.358 239.146,-319.133c132.15,-165.783 198.325,-354.329 230.517,-560.492c20.937,-134.058 57.117,-265.537 116.892,-388.496c34.65,-71.266 80.179,-158.35 166.533,-139.754c91.742,19.759 65.954,120.854 68.612,192.542c3.559,95.896 -19.316,189.379 -34.287,290.758c7.912,9.771 -3.658,25.529 14.829,21.663Z" style="fill:#f4d3c3;fill-rule:nonzero;"/><path d="M7625.66,1463.3c-149.612,173.437 -262.325,371.587 -422.183,532.562c-50.65,51.009 -103.633,118.334 -184.633,83.079c-83.913,-36.525 -85.842,-122.737 -84.092,-202.783c2.696,-123.05 38.363,-239.046 77.829,-354.092c11.004,-32.075 22.863,-63.858 40.109,-111.85c-147.609,49.95 -268.746,119.009 -386.013,194.638c-36.425,23.496 -22.396,68.925 -24.862,105.35c-28.846,426.142 -102.946,843.3 -246.988,1246.57c-59.246,165.883 -134.412,318.904 -295.262,414.821c-287.071,171.183 -573.05,22.687 -595.388,-311.296c-14.612,-218.484 68.346,-407.354 175.429,-588.934c139.446,-236.458 314.446,-443.804 523.384,-621.525c49.733,-42.3 76.787,-86.462 76.258,-153.487c-0.679,-86.508 8.379,-173.092 13.65,-266.913c-40.633,16.813 -42.571,51.45 -53.296,77.167c-56.158,134.625 -128.817,258.85 -222.446,370.942c-31.925,38.216 -66.612,72.837 -111.296,95.304c-127.775,64.246 -246.466,8.142 -278.154,-130.958c-6.35,-27.884 -11.425,-56.059 -19.137,-94.25c-76.309,102.637 -146.588,200.025 -220.013,294.979c-54.787,70.858 -109.383,142.908 -185.712,193.15c-127.617,84 -259.954,41.091 -301.784,-105.15c-47.387,-165.659 -23.333,-332.546 12.359,-497.75c37.925,-175.538 81.262,-349.754 168.175,-508.529c38.462,-70.267 84.387,-164.188 177.541,-136.217c92.23,27.687 70.005,131.683 58.888,204.308c-31.9,208.35 -75.479,414.888 -111.754,622.613c-12.413,71.083 -17.913,143.475 -24.213,215.475c-2.229,25.45 -2.275,57.962 24.379,69.012c28.059,11.638 47.8,-15.408 64.409,-34.4c107.037,-122.408 193.733,-259.741 286.896,-392.383c58.941,-83.917 98.954,-175.3 127.987,-273.388c21.296,-71.95 48.813,-143.654 109.05,-194.125c54.175,-45.387 88.463,-33.029 104.804,34.888c15.463,64.258 -2.758,126.4 -13.304,188.954c-18.246,108.271 -39.204,216.183 -53.575,324.967c-5.4,40.866 -10.958,94.025 36.163,115.121c49.495,22.158 80.295,-21.609 107.325,-54.163c179.212,-215.854 255.537,-475.837 315.65,-742.562c6.954,-30.871 11.783,-62.884 23.766,-91.817c22.025,-53.175 57.034,-94.079 120.225,-99.254c67.396,-5.521 109.1,32.441 139,85.616c48.059,85.463 58.446,180.921 65.038,276.271c4.987,72.159 5.633,144.65 6.962,217.017c0.629,34.45 2.092,60.437 47.659,34.329c123.116,-70.546 247.979,-137.575 386.67,-173.875c24.788,-6.487 33.23,-30.254 46.175,-49.208c30.938,-45.292 58.959,-93.288 94.817,-134.384c142.538,-163.362 307.225,-178.787 471.35,-39.075c52.792,44.938 69.208,32.555 91.204,-22.675c22.617,-56.783 58.309,-107.1 105.529,-146.895c84.488,-71.209 154.855,-46.863 172.809,61.433c15.866,95.708 1.029,190.95 -19.913,284.296c-52.554,234.271 -97.75,469.833 -126.8,708.154c-7.446,61.075 -38.521,151.608 15.817,177.042c61.492,28.783 102.654,-59.08 139.533,-105.871c162.709,-206.434 332.342,-408.729 422.584,-662.359c31.033,-87.216 79.95,-166.97 139.366,-239.108c138.563,-168.233 292.65,-190.433 471.859,-69.242c16.166,10.93 27.883,31.055 57.975,28.067c33.325,-154.729 65.091,-312.658 101.741,-469.442c37.492,-160.4 79.313,-319.97 138.667,-473.929c36.608,-94.954 81.067,-187.2 167.833,-248.062c61.117,-42.871 95.425,-26.784 108.092,46.308c12.137,70.038 -3.525,138.796 -14.75,206.983c-72.825,442.375 -137.275,885.88 -182.992,1331.93c-18.9,184.408 -31.208,369.312 -24.879,554.875c1.346,39.45 -5.279,91.525 37.225,107.283c39.496,14.638 65.075,-30.571 88.8,-57.571c136.117,-154.887 245.196,-329.296 357.654,-501.221c38.017,-58.12 75.888,-116.387 115.813,-173.191c14.021,-19.95 30.312,-55.338 56.85,-42.346c35.146,17.192 6.233,51.525 1.087,77.237c-4.433,22.146 -15.612,43.625 -26.971,63.605c-139.083,244.554 -292.9,478.966 -479.887,690.229c-17.188,19.416 -36.688,36.966 -56.267,54.066c-163.896,143.13 -344.762,92.963 -409.904,-116.445c-49.696,-159.746 -51.642,-325.025 -42.221,-490.325c5.584,-97.984 15.292,-195.725 23.942,-303.525c-70.508,67.879 -112.383,147.141 -166.129,216.883c-102.404,132.875 -191.771,275.842 -308.788,397.379c-6.025,6.258 -12.066,12.542 -18.537,18.325c-53.679,47.938 -107.046,115.079 -186.963,78.496c-73.691,-33.733 -82.825,-112.508 -82.083,-187.738c0.187,-19.033 0.025,-38.07 0.025,-80.466c-103.692,152.821 -202.675,279.375 -308.196,400.579c-32.121,36.896 -66.629,73.421 -105.908,102.092c-153.7,112.191 -324.317,48.737 -366.788,-136.846c-48.566,-212.234 -7.158,-419.809 40.204,-626.471c4.517,-19.717 9.555,-39.308 14.621,-65.817c4.213,-13.354 2.396,-17.987 -9.096,-20.487Z" style="fill:#f3d2c3;fill-rule:nonzero;"/><path d="M964.914,6591.97c46.225,-369.166 92.617,-730.541 134.767,-1092.41c13.033,-111.883 17.083,-225.05 19.929,-337.763c1.029,-40.8 5.971,-95.125 -45.191,-111.637c-47.455,-15.321 -80.913,22.696 -109.913,54.996c-133.767,148.987 -217.487,326.696 -288.433,511.083c-122.871,319.325 -181.429,656.896 -277.275,983.929c-47.154,160.904 -90.238,323.288 -161.329,475.7c-31.305,67.117 -63.655,152.846 -157.609,133.892c-88.412,-17.838 -76.583,-109.454 -78.566,-173.433c-7.55,-243.405 19.141,-485.434 49.054,-726.588c51.962,-418.917 115.1,-836.058 228.071,-1243.83c22.337,-80.617 43.637,-162.608 92.6,-232.654c38.212,-54.663 87.475,-99.567 158.758,-83.704c69.65,15.504 89.362,77.908 96.479,140.245c18.321,160.484 -27.433,315.413 -45.154,472.788c-4.304,38.254 -9.958,76.354 -2.1,117.15c50.175,-83.388 98.258,-168.125 151.079,-249.8c60.171,-93.046 132.967,-176.246 226.279,-237.371c169.584,-111.083 310.542,-56.775 363.509,138.508c43.041,158.688 43.691,321.621 31.879,483.125c-32.359,442.455 -110.359,877.213 -240.042,1302.01c-12.6,41.266 -30.579,81.15 -48.996,120.295c-12.266,26.075 -28.408,54.98 -63.575,49.375c-33.366,-5.32 -43.4,-35.3 -50.408,-64.116c-34.533,-142.05 -1.8,-281.85 16.187,-429.784Z" style="fill:#f5d3c2;fill-rule:nonzero;"/><path d="M4263.16,835.262c152.646,-204.512 311.1,-396.367 472.263,-586.083c17.371,-20.45 55.729,-39.079 39.008,-68.567c-13.608,-24 -52.233,-14.587 -80.375,-14.692c-194.941,-0.708 -384.162,50.817 -577.612,63.475c-48.875,3.2 -98.129,3.13 -147.075,1.205c-15.329,-0.605 -36.334,-3.692 -41.829,-24.196c-6.742,-25.171 11.516,-38.75 29.958,-46.371c55.942,-23.121 111.679,-48.229 169.771,-64.4c263.525,-73.363 530.65,-117.525 805.466,-84.525c31.413,3.771 63.059,9.662 93.23,18.987c142.416,44.021 172.304,132.95 85.641,254.817c-241.521,339.633 -483.596,678.875 -725.271,1018.4c-16.35,22.967 -31.195,47.004 -51.208,77.317c58.25,12.591 108.1,22.454 157.417,34.504c18.75,4.575 44.991,8.187 43.675,33.858c-1.329,25.879 -22.217,39.084 -47.909,41.879c-54.62,5.955 -109.679,18.796 -163.8,15.663c-66.995,-3.879 -104.7,24.858 -140.358,77.242c-131.908,193.783 -268.042,384.691 -401.675,577.308c-19.162,27.625 -44.8,52.629 -50.625,96.504c52.4,0 102.542,-0.096 152.688,0.017c266.02,0.579 532.995,-20.659 796.87,30.512c48.825,9.467 122.821,13.213 117.121,77.446c-6.021,67.9 -81.821,50.913 -129.358,51.329c-243.054,2.138 -486.417,-13.971 -728.979,12.754c-86.125,9.492 -171.467,27.009 -257.721,34.221c-103.304,8.642 -142.379,-23.816 -163.996,-123.729c-23.592,-109.071 4.138,-213.021 35.588,-315.421c50.391,-164.087 129.754,-315.321 217.104,-462.216c28.454,-47.846 28.041,-66.205 -35.663,-73.992c-48.941,-5.983 -134.912,7.771 -133.491,-58.308c1.008,-46.934 87.083,-44.98 134.55,-41.467c109.258,8.092 171.725,-37.842 228.066,-129.888c88.921,-145.275 195.5,-279.75 298.529,-423.583Z" style="fill:#f5d3c2;fill-rule:nonzero;"/><path d="M7398.83,4177.01c-45.458,118.021 -105.833,220.758 -179.833,313.292c-67.892,84.896 5.95,126.75 45.404,174.675c42.154,51.204 98.887,56.808 152.612,9.666c19.542,-17.154 36.425,-37.345 56.05,-54.387c13.892,-12.067 27.213,-38.325 48.963,-20.933c18.171,14.529 6.35,37.775 -1.708,56.3c-76.313,175.437 -286.296,210.204 -421.396,64.133c-44.796,-48.429 -68.125,-53.183 -120.554,-10.613c-105.25,85.455 -227.88,97.738 -350.913,40.688c-147.862,-68.558 -204.029,-200.288 -213.983,-352.063c-18.663,-284.637 88.375,-519.962 299.875,-707.712c36.6,-32.492 47.037,-64.879 49.041,-111.371c6.738,-156.471 25.375,-311.204 99.8,-453.358c27.13,-51.817 60.917,-97.654 104.109,-137.513c66.537,-61.404 144.983,-76.191 225.558,-45.737c79.146,29.912 118.942,98.687 129.375,181.533c14.938,118.621 -12.375,229.671 -66.237,335.192c-52.917,103.666 -118.163,199.458 -196.442,284.908c-42.971,46.904 -57.492,96.271 -51.692,157.129c14.554,152.646 27.313,305.217 85.071,449.913c20.529,51.416 38.304,54.654 74.067,11.191c103.321,-125.554 168.975,-268.083 202.887,-426.195c4.679,-21.821 1.129,-47.163 28.617,-63.405c68.946,99.275 28.167,199.05 1.329,304.667Z" style="fill:#f3d2c3;fill-rule:nonzero;"/><path d="M8954.66,5599.01c-10.275,-72.312 -25.712,-137.533 -19.787,-204.392c2.071,-23.391 -13.975,-59.887 21.987,-65.283c32.413,-4.862 34.246,32.721 45.63,54.513c5.166,9.891 7.887,21.062 14.908,40.487c36.267,-28.921 68.796,-55.075 101.583,-80.892c11.4,-8.975 23.917,-17.945 38.959,-9.158c17.912,10.471 19.275,27.246 13.095,45.083c-31.695,91.525 -84.787,170.213 -149.812,240.642c-25,27.071 -51.017,24.579 -66.563,-21Z" style="fill:#e8cbbd;fill-rule:nonzero;"/><path d="M5217.58,706.679c-0.233,-10.542 -0.575,-13.509 -0.017,-16.288c6.842,-34.046 -21.641,-88.2 24.338,-97.737c41.787,-8.671 34.558,50.066 52.133,77.004c3.096,4.746 7.467,8.658 13.721,15.758c30.042,-25.891 59.696,-52.221 90.271,-77.433c12.908,-10.646 27.146,-24.271 45.746,-12.071c17.508,11.479 15.871,29.117 9.975,46.246c-31.484,91.487 -84.075,170.275 -150.234,239.65c-32.45,34.025 -56.929,20.492 -64.687,-22.263c-8.729,-48.083 -14.104,-96.775 -21.246,-152.866Z" style="fill:#e8cbbd;fill-rule:nonzero;"/><path d="M2019.79,6460.64c11.717,-31.587 29.78,-63.537 49.93,-99.179c29.295,35.212 6.479,61.754 -3.28,94.904c-15.079,5.254 -27.691,4.579 -46.65,4.275Z" style="fill:#775a62;fill-rule:nonzero;"/><path d="M6879.46,6180.05c-108.158,143.079 -212.154,281.546 -317.396,419.058c-20.958,27.379 -45.741,52.088 -70.554,76.183c-20.292,19.709 -44.867,51.371 -71.525,39.15c-37.937,-17.387 -14.004,-55.916 -7.904,-84.925c42.967,-204.379 105.55,-402.237 216.15,-580.887c112.767,-182.158 233.183,-209.392 427.225,-100.638c-57.688,76.046 -114.975,151.58 -175.996,232.059Z" style="fill:#472f45;fill-rule:nonzero;"/><path d="M10395.2,6201.8c42.863,-92.667 84.642,-178.559 154.734,-246.059c88.462,-85.2 229.025,-95.7 328.187,-28.583c25.938,17.554 17.679,30.871 4.154,48c-180.745,228.896 -338.883,475.204 -533.683,693.208c-20.567,23.013 -48.837,57.267 -78.237,43.63c-39.105,-18.142 -15.792,-62.688 -9.713,-92.992c28.458,-141.788 76.529,-277.771 134.558,-417.204Z" style="fill:#472f45;fill-rule:nonzero;"/><path d="M9701.29,6536.39c69.784,268.254 44.617,629.842 -73.862,897.696c-0,-103.033 -1.896,-206.113 0.529,-309.092c2.442,-103.729 7.717,-207.454 14.433,-311.008c6.9,-106.346 17.05,-212.479 25.775,-318.7c26.542,-0.517 26.68,19.142 33.125,41.104Z" style="fill:#472f45;fill-rule:nonzero;"/><path d="M3233.96,5959.72c-0.183,16.284 -4.75,29.105 -17.521,64.93c0,-37.709 0,-51.192 1.946,-69.671c5.025,-2.9 8.108,-0.809 15.575,4.741Z" style="fill:#422b45;fill-rule:nonzero;"/><path d="M6971.25,6217.01c-0.7,-10.537 -5.142,-30.012 10.6,-21.758c13.75,7.208 2.216,17.746 -10.6,21.758Z" style="fill:#422b45;fill-rule:nonzero;"/><path d="M10146.9,6403.76c6.48,-9.375 17.188,-20.067 11.755,6.033c-3.455,2.309 -9.063,-3.179 -11.755,-6.033Z" style="fill:#422b45;fill-rule:nonzero;"/><path d="M6204.79,2376.14c-33.962,236.333 -69.35,464.642 -118.758,690.529c-13.062,59.729 -32.917,116.713 -65.833,168.775c-104.513,165.296 -285.7,161.229 -378.659,-10.933c-60.75,-112.513 -59.633,-235.508 -34.387,-355.538c64.867,-308.383 249.775,-548.7 453.75,-777.133c55.687,-62.358 109.533,-126.362 178.492,-180.496c12.904,160.538 -14.405,308.504 -34.605,464.796Z" style="fill:#442d45;fill-rule:nonzero;"/><path d="M7224.79,1849.39c-38.12,39.913 -71.595,75.796 -106.808,109.888c-12.162,11.775 -28.837,22.35 -47.096,14.916c-21.133,-8.604 -15.979,-30.358 -12.941,-44.975c52.008,-250.075 116.337,-496.762 283.979,-698.312c87.666,-105.396 226.546,-115.113 338.296,-43.059c41.083,26.492 9.754,44.138 -2.905,61.063c-148.854,199.075 -298.858,397.296 -452.525,600.479Z" style="fill:#472f45;fill-rule:nonzero;"/><path d="M8483.87,1952.26c42.621,-247.946 114.179,-479.079 255.683,-681.9c95.604,-137.037 208.758,-160.433 355.483,-87.425c28.521,14.188 42.05,25.029 17.28,55.854c-181.146,225.417 -335.955,471.421 -533.555,683.792c-21.991,23.633 -43.67,75.283 -94.891,29.679Z" style="fill:#472f45;fill-rule:nonzero;"/><path d="M7624.33,1467.18c2.908,-10.471 3.371,-26.217 17.721,-20.85c2.804,1.05 0.571,15.541 -3.196,27.216c-6.258,1.246 -8.654,-0.891 -14.525,-6.366Z" style="fill:#422b45;fill-rule:nonzero;"/><path d="M6643.25,4540.72c-34.909,-212.716 36.458,-389.104 160.291,-577.408c6.505,66.913 9.492,110.863 15.255,154.446c18.291,138.437 58.116,270.412 127.437,391.987c20.108,35.267 18.9,56.821 -19.037,74.696c-31.225,14.713 -60,35.067 -91.909,47.784c-95.433,38.025 -137.716,18.295 -192.037,-91.505Z" style="fill:#472f45;fill-rule:nonzero;"/><path d="M7019.5,3194.18c20.066,-55.596 41.275,-102.813 79.171,-140.429c23.416,-23.242 48.841,-42.634 84.15,-27.771c33.933,14.283 42.5,45.804 45.337,77.966c4.267,48.371 -17.404,90.188 -40.829,130.009c-54.938,93.391 -113.275,184.408 -208.463,266.35c-4.133,-112.334 5.938,-207.246 40.634,-306.125Z" style="fill:#472f45;fill-rule:nonzero;"/></svg>