<?xml version="1.0" encoding="UTF-8" standalone="no"?><!DOCTYPE svg PUBLIC "-//W3C//DTD SVG 1.1//EN" "http://www.w3.org/Graphics/SVG/1.1/DTD/svg11.dtd"><svg width="100%" height="100%" viewBox="0 0 12989 10838" version="1.1" xmlns="http://www.w3.org/2000/svg" xmlns:xlink="http://www.w3.org/1999/xlink" xml:space="preserve" xmlns:serif="http://www.serif.com/" style="fill-rule:evenodd;clip-rule:evenodd;stroke-linejoin:round;stroke-miterlimit:2;"><rect x="-5483.14" y="-11695.9" width="23829.7" height="33520.8" style="fill:#422b45;"/><path d="M3234.71,7555.48c51.175,-70.033 85.779,-147.329 141.796,-210.917c31.096,-35.3 64.75,-67.075 107.95,-85.662c76.671,-32.996 123.796,-7.984 151.021,74.346c20.483,61.925 14.45,126.037 20.321,189.187c4.55,48.917 5.65,98.992 17.687,146.154c14.021,54.946 41.596,107.55 111.667,98.571c67.741,-8.687 102.787,-44.687 106.837,-121.467c20.488,-388.487 75.029,-771.325 214.404,-1137.7c31.921,-83.904 63.734,-168.27 125.342,-236.429c27.65,-30.587 60.963,-64.466 103.263,-51.066c45.22,14.325 44.312,63.175 44.795,103.729c2.221,186.271 -40.662,367.716 -61.287,551.537c-33.779,301.079 -62.717,602.317 -74.842,928.238c70.038,-83.909 126.838,-151.579 183.221,-219.596c79.504,-95.913 159.192,-191.8 250.396,-276.913c25.833,-24.108 58.583,-72.766 91.008,-47.529c33.538,26.096 -5.396,68.963 -24.683,98.696c-97.733,150.675 -198.029,299.863 -324.888,428.283c-39.875,40.367 -54.429,78.842 -41.716,138.171c29.708,138.617 53.65,278.55 112.133,408.738c76.096,169.379 169.146,185.954 292.45,49.291c132.967,-147.375 238.825,-316.962 313.067,-497.77c45.412,-110.596 33.591,-244.463 48.737,-367.725c43.934,-357.442 121.054,-706.546 265.046,-1038.45c34.683,-79.95 73.421,-157.941 142.067,-215.433c26.483,-22.183 55.583,-48.317 93.062,-33.092c35.821,14.55 31.154,54.471 33.296,83.605c7.508,102.054 -17.583,201.17 -35.817,300.675c-83.395,455.062 -156.591,911.37 -174.329,1380.93c35.821,-10.217 33.488,-39.554 41.238,-59.95c53.596,-141.042 110.629,-280.408 206.791,-399.021c28.913,-35.658 60.859,-70.567 97.309,-97.992c47.137,-35.466 102.9,-61.15 161.312,-27.95c54.179,30.8 51.871,89.338 45.475,140.08c-18.796,149.112 -45.7,297.208 -64.216,446.345c-9.33,75.134 -41.263,178.367 39.245,212.855c72.205,30.929 129.963,-58.463 179.755,-112.18c96.529,-104.129 182.058,-215.412 230.808,-353.112c37.708,-106.504 96.121,-204.429 173.837,-288.354c137.084,-148.038 301.555,-164.792 453.859,-35.246c61.279,52.125 79.975,33.558 105.721,-25.117c25.779,-58.754 61.545,-111.791 116.054,-148.9c78.804,-53.65 129.196,-33.941 152.258,57.729c28.717,114.13 0.783,225.15 -23.046,334.613c-51.704,237.487 -96.9,475.85 -124.379,717.396c-5.479,48.187 -23.412,115.346 19.404,136.6c49.25,24.441 81.279,-40.413 111.829,-75.213c135.934,-154.829 252.734,-324.162 364.688,-496.662c49.733,-76.625 35.325,-168.584 47.346,-253.434c55.271,-390.225 137.254,-774.075 263.746,-1147.6c33.541,-99.054 80.212,-192.787 163.545,-261.729c24.471,-20.242 52.28,-42.137 86.3,-29.071c37.538,14.421 31.988,52.779 33.109,82.984c6.479,175.191 -41.638,343.912 -65.438,515.425c-68.791,495.716 -149.462,990.033 -158.521,1491.99c-0.72,40.221 5.25,80.646 9.488,120.825c2.371,22.467 1.733,49.95 28.554,57.925c25.917,7.708 43.121,-14.154 58.513,-30.258c76.258,-79.796 139.037,-170.279 204.404,-258.854c132.916,-180.105 250.675,-366.413 301.35,-589.513c19.741,-86.912 59.675,-169.475 119.658,-238.575c34.35,-39.571 73.638,-85.358 131.067,-67.479c59.741,18.596 59.183,80.671 61.712,131.946c6.367,129.108 -35.991,251.166 -59.562,375.9c-32.738,173.254 -70.638,345.758 -78.721,522.583c-1.363,29.779 -13.333,70.842 23.137,85.05c31.334,12.204 51.392,-21.958 69.213,-42.871c133.675,-156.866 259.412,-322.362 350.142,-505.725c60.187,-121.641 73.875,-266.12 109.57,-400.058c64.092,-240.483 146.859,-474.896 233.246,-708.05c25.363,-68.458 59.646,-132.354 118.746,-178.4c24.775,-19.304 52.654,-42.608 86.267,-27.108c33.591,15.483 33.566,50.575 34.85,82.875c5.375,135.062 -36.246,262.837 -61.013,393.175c-47.483,249.883 -97.446,499.3 -143.483,749.446c-25.554,138.849 37.629,212.533 180.833,219.208c131.4,6.121 275.479,-89.475 325.917,-214.992c48.762,-121.358 105.629,-238.45 193.975,-336.916c136.904,-152.592 303.662,-169.8 459.896,-37.505c57.171,48.409 75.187,36.5 100.825,-22.395c29.121,-66.892 68.866,-128.221 136.125,-164.188c68.183,-36.454 107.125,-19.104 130.604,55.242c31.992,101.296 9.583,201.066 -10.692,300.1c-52.171,254.883 -108.341,509.083 -131.379,768.804c-4.133,46.646 -25.787,115 21.288,134.421c47.325,19.521 79.92,-44.479 111.1,-79.979c136.033,-154.867 252.116,-324.696 363.991,-497.263c46.513,-71.742 31.267,-157.646 39.475,-236.771c39.838,-384.05 108.567,-761.104 250.792,-1121.91c31.825,-80.733 63.575,-162.479 117.346,-231.729c38.321,-49.354 82.066,-120.542 150.058,-91.696c56.379,23.921 41.658,102.787 33.392,157.992c-26.113,174.337 -58.696,347.695 -87.596,521.629c-59.229,356.487 -107.5,714.2 -121.171,1081.83c37.133,-10.096 33.9,-40.579 41.35,-60.537c47.729,-127.796 99.375,-253.688 180.3,-364.655c30.483,-41.791 64.163,-82.554 102.492,-117.004c48.421,-43.516 107.175,-77.533 173.833,-47.487c70.063,31.583 60.863,101.116 53.242,160.062c-17.409,134.654 -42.821,268.259 -62.071,402.704c-6.938,48.459 -8.833,98.242 -6.879,147.175c1.45,36.3 0.875,80.917 42.258,97.505c36.575,14.658 66.038,-13.505 93.333,-34.405c116.955,-89.55 195.746,-212.066 282.163,-328.037c26.783,-35.946 46.517,-79.658 93.392,-97.65c17.716,30.246 4.358,53.671 -8.567,75.733c-83.763,142.975 -176.029,280.267 -304.963,386.742c-148.545,122.667 -277.741,76.433 -316.583,-111.417c-26.596,-128.633 8.342,-252.675 36.008,-376.929c13.8,-61.992 26.609,-124.279 37.009,-186.908c3.654,-22.021 2.8,-48.592 -23.875,-58.921c-22.05,-8.538 -39.138,6.542 -53.1,21.229c-19.838,20.871 -41.284,41.421 -55.996,65.758c-145.033,239.888 -247.954,496.771 -298.108,772.788c-13.33,73.358 -5.488,150.3 -13.646,224.912c-12.863,117.667 -88.425,153.121 -188.854,90.5c-83.296,-51.937 -129.971,-127.508 -145.688,-225.362c-19.25,-119.846 -13.458,-241.358 -25.108,-362.263c-38.629,0.571 -42.254,32.609 -54.417,52.171c-95.162,153.054 -208.142,292.459 -324.867,429.059c-18.75,21.941 -39.35,42.554 -60.775,61.929c-170.945,154.616 -359.45,96.566 -406.262,-129.771c-42.592,-205.938 -3.571,-408.558 43.992,-609.346c6.287,-26.546 23.487,-51.933 5.058,-91.487c-79.254,106.37 -155.292,207.258 -230.05,309.087c-72,98.071 -142.275,197.742 -237.008,275.875c-40.03,33.017 -84.617,70.958 -140.492,43.592c-56.821,-27.829 -76.729,-82.975 -80.667,-144.138c-5.433,-84.425 4.234,-167.416 22.175,-256.996c0.138,-11.175 0.359,-15.054 -5.25,-18.712c-126.971,69.321 -254.25,89.329 -401.366,40.142c34.229,143.333 62.604,278.016 65.45,415.72c5.77,279.538 -46.98,546.55 -182.546,793.184c-32.459,59.05 -65.342,133.625 -150.279,124.854c-90.8,-9.379 -139.825,-78.471 -168.175,-157.713c-39.421,-110.191 -43.075,-226.962 -47.421,-342.537c-9.496,-252.221 16.566,-502.4 51.358,-753.117c-34.708,-4.166 -37.079,25.609 -48.167,41.184c-80.616,113.245 -162.358,225.558 -255.32,329.129c-38.759,43.179 -80.73,83.596 -135.163,106.916c-112.467,48.18 -215.254,3.705 -255.971,-115.375c-16.621,-48.6 -23.675,-101.316 -28.704,-152.779c-4.712,-48.279 -1.008,-97.371 -1.008,-146.483c-39.692,-5.879 -42.729,28.167 -55.85,46.642c-98.938,139.312 -195.175,280.995 -326.634,392.87c-155.929,132.696 -327.512,84.175 -394.52,-110.887c-37.042,-107.821 -47.088,-220.075 -47.934,-333.367c-0.229,-30.837 -0.033,-61.675 -0.033,-95.387c-38.521,6.454 -43.138,35.596 -55.896,55.321c-107.175,165.725 -226.371,322.1 -362.575,465.012c-76.254,80.004 -166.254,131.129 -279.458,89.313c-109.738,-40.542 -140.625,-137.984 -154.284,-242.53c-23.633,-180.9 5.659,-357.445 45.188,-533.158c6.612,-29.383 22.633,-58.567 2.821,-107.862c-67.817,89.379 -130.279,169.883 -190.746,251.862c-72.142,97.808 -140.1,199.404 -229.542,282.454c-49.496,45.959 -102.412,111.225 -179.771,74.884c-78.633,-36.938 -80.841,-121.05 -82.87,-196.713c-1.071,-39.967 7.587,-80.192 -4.521,-133.525c-37.592,41.579 -72.917,85.521 -113.296,124.188c-61.254,58.662 -134.708,99.066 -220.258,69c-88.93,-31.259 -106.363,-117.321 -117.459,-198.009c-16.066,-116.812 14.134,-229.841 40.15,-342.716c14.279,-61.963 27.246,-124.259 39.346,-186.688c4.525,-23.337 3.029,-49.496 -20.571,-61.408c-24.279,-12.254 -44.7,5.612 -61.066,21.721c-18.463,18.179 -37.175,37.395 -50.425,59.383c-149.117,247.496 -254.905,512.133 -303.984,797.358c-11.671,67.834 -3.362,138.871 -11.058,207.675c-12.754,114.009 -84.121,149.484 -182.429,91.171c-83.854,-49.737 -138.713,-123.204 -149.259,-222.067c-12.416,-116.383 -20.133,-233.262 -31.67,-371.25c-54.3,93.796 -96.859,171.059 -143.055,246.075c-47.041,76.409 -96.166,151.925 -168.329,208.242c-124.216,96.954 -259.483,71.204 -336.121,-66.904c-72.787,-131.163 -87.904,-279.875 -124.954,-422.075c-9.15,-35.117 12.659,-105.863 -43.575,-101.583c-55.254,4.204 -36.296,70.025 -35.05,110.32c4.738,153.234 15.946,306.3 18.909,459.542c1.35,69.742 14.908,160.404 -76.925,181.675c-86.842,20.113 -155.946,-35.142 -202.509,-106.158c-65.396,-99.742 -79.075,-216.446 -89.716,-331.496c-11.705,-126.583 -22.442,-253.696 -13.613,-381.154c3.342,-48.317 -3.608,-65.584 -61.375,-47.788c-146.942,45.259 -240.475,-23.333 -255.425,-180.475c-7.937,-83.458 -10.929,-167.383 -16.521,-251.071c-1.546,-23.137 -1.325,-50.804 -25.408,-60.791c-27.788,-11.529 -49.208,8.654 -67.867,27.583c-121.387,123.133 -187.487,277.579 -237.925,438.096c-63.396,201.767 -100.175,409.683 -121.408,620.237c-7.888,78.221 -24.054,154.955 -67.358,222.009c-50.617,78.379 -120.88,78.837 -172.888,1.191c-63.112,-94.22 -62.05,-202.687 -61.229,-309.858c0.525,-69.112 6.096,-138.192 9.55,-210.279c-38.779,11.096 -45.979,45.6 -62.783,70.033c-100.142,145.617 -201.225,290.371 -326.959,415.804c-65.958,65.805 -147.208,103.275 -236.279,72.905c-83.433,-28.446 -113.021,-107.121 -129.583,-191.538c-27.475,-140.033 -4.896,-276.4 18.346,-420.379c-5.821,-48.85 -23.867,-32.646 -46.33,-12.079c-79.337,102.554 -145.379,208.271 -236.095,294.825c-49.317,47.058 -105.263,78.591 -171.921,55.933c-61.188,-20.8 -81.313,-78.25 -87.113,-138.742c-23.687,-247.104 40.863,-474.52 157.575,-689.412c20.067,-36.946 54.463,-68.238 98.579,-56.167c48.746,13.338 44.93,62.475 43.942,102.179c-3.762,151.359 -58.067,294.259 -76.462,443.288c-5.663,45.871 -13.292,91.496 -18.875,137.371c-2.367,19.471 -9.888,44.712 10.408,55.675c25.933,14.004 41.383,-11.229 57.237,-26.967c76.384,-75.796 138.355,-163.033 197.625,-252.187c85.005,-127.855 155.646,-263.734 222.413,-401.767c25.221,-52.138 54.254,-102.213 95.108,-144.15c30.034,-30.829 67.313,-48.058 109.725,-39.638c46.929,9.321 48.309,54.321 55.054,89.567c22.405,116.979 -9.937,230.017 -34.095,342.371c-38.88,180.833 -75.067,361.904 -95.621,545.833c-1.925,17.234 -4.963,34.784 -3.525,51.85c2.533,30.025 -12.392,71.625 22.666,85.034c29.905,11.437 49.75,-24.288 68.1,-44.875c88.755,-99.58 156.425,-215.359 239.146,-319.134c132.15,-165.783 198.325,-354.329 230.517,-560.491c20.937,-134.059 57.117,-265.538 116.892,-388.496c34.65,-71.267 80.179,-158.35 166.533,-139.754c91.742,19.758 65.954,120.854 68.612,192.541c3.559,95.896 -19.316,189.379 -34.287,290.759c7.912,9.77 -3.658,25.529 14.829,21.662Z" style="fill:#f4d3c3;fill-rule:nonzero;"/><path d="M7625.66,3054.47c-149.612,173.438 -262.325,371.588 -422.183,532.563c-50.65,51.008 -103.633,118.333 -184.633,83.079c-83.913,-36.525 -85.842,-122.738 -84.092,-202.784c2.696,-123.05 38.363,-239.046 77.829,-354.091c11.004,-32.075 22.863,-63.859 40.109,-111.85c-147.609,49.95 -268.746,119.008 -386.013,194.637c-36.425,23.496 -22.396,68.925 -24.862,105.35c-28.846,426.142 -102.946,843.3 -246.988,1246.57c-59.246,165.883 -134.412,318.904 -295.262,414.821c-287.071,171.183 -573.05,22.687 -595.388,-311.296c-14.612,-218.483 68.346,-407.354 175.429,-588.933c139.446,-236.459 314.446,-443.804 523.384,-621.525c49.733,-42.3 76.787,-86.463 76.258,-153.488c-0.679,-86.508 8.379,-173.092 13.65,-266.912c-40.633,16.812 -42.571,51.45 -53.296,77.166c-56.158,134.625 -128.817,258.85 -222.446,370.942c-31.925,38.217 -66.612,72.837 -111.296,95.304c-127.775,64.246 -246.466,8.142 -278.154,-130.958c-6.35,-27.884 -11.425,-56.059 -19.137,-94.25c-76.309,102.637 -146.588,200.025 -220.013,294.979c-54.787,70.858 -109.383,142.908 -185.712,193.15c-127.617,84 -259.954,41.092 -301.784,-105.15c-47.387,-165.658 -23.333,-332.546 12.359,-497.75c37.925,-175.537 81.262,-349.754 168.175,-508.529c38.462,-70.267 84.387,-164.188 177.541,-136.217c92.23,27.688 70.005,131.684 58.888,204.309c-31.9,208.35 -75.479,414.887 -111.754,622.612c-12.413,71.083 -17.913,143.475 -24.213,215.475c-2.229,25.45 -2.275,57.963 24.379,69.013c28.059,11.637 47.8,-15.409 64.409,-34.4c107.037,-122.409 193.733,-259.742 286.896,-392.384c58.941,-83.916 98.954,-175.3 127.987,-273.387c21.296,-71.95 48.813,-143.654 109.05,-194.125c54.175,-45.388 88.463,-33.029 104.804,34.887c15.463,64.259 -2.758,126.4 -13.304,188.954c-18.246,108.271 -39.204,216.184 -53.575,324.967c-5.4,40.867 -10.958,94.025 36.163,115.121c49.495,22.158 80.295,-21.608 107.325,-54.163c179.212,-215.854 255.537,-475.837 315.65,-742.562c6.954,-30.871 11.783,-62.883 23.766,-91.817c22.025,-53.175 57.034,-94.079 120.225,-99.254c67.396,-5.521 109.1,32.442 139,85.617c48.059,85.462 58.446,180.921 65.038,276.271c4.987,72.158 5.633,144.65 6.962,217.016c0.629,34.45 2.092,60.438 47.659,34.329c123.116,-70.545 247.979,-137.575 386.67,-173.875c24.788,-6.487 33.23,-30.254 46.175,-49.208c30.938,-45.292 58.959,-93.287 94.817,-134.383c142.538,-163.363 307.225,-178.788 471.35,-39.075c52.792,44.937 69.208,32.554 91.204,-22.675c22.617,-56.784 58.309,-107.1 105.529,-146.896c84.488,-71.209 154.855,-46.863 172.809,61.433c15.866,95.709 1.029,190.95 -19.913,284.296c-52.554,234.271 -97.75,469.833 -126.8,708.154c-7.446,61.075 -38.521,151.608 15.817,177.042c61.492,28.783 102.654,-59.079 139.533,-105.871c162.709,-206.433 332.342,-408.729 422.584,-662.358c31.033,-87.217 79.95,-166.971 139.366,-239.109c138.563,-168.233 292.65,-190.433 471.859,-69.241c16.166,10.929 27.883,31.054 57.975,28.066c33.325,-154.729 65.091,-312.658 101.741,-469.441c37.492,-160.4 79.313,-319.971 138.667,-473.93c36.608,-94.954 81.067,-187.199 167.833,-248.062c61.117,-42.871 95.425,-26.783 108.092,46.308c12.137,70.038 -3.525,138.796 -14.75,206.984c-72.825,442.375 -137.275,885.879 -182.992,1331.93c-18.9,184.408 -31.208,369.312 -24.879,554.875c1.346,39.45 -5.279,91.525 37.225,107.283c39.496,14.638 65.075,-30.571 88.8,-57.571c136.117,-154.887 245.196,-329.295 357.654,-501.22c38.017,-58.121 75.888,-116.388 115.813,-173.192c14.021,-19.95 30.312,-55.338 56.85,-42.346c35.146,17.192 6.233,51.525 1.087,77.238c-4.433,22.145 -15.612,43.625 -26.971,63.604c-139.083,244.554 -292.9,478.966 -479.887,690.229c-17.188,19.417 -36.688,36.967 -56.267,54.067c-163.896,143.129 -344.762,92.962 -409.904,-116.446c-49.696,-159.746 -51.642,-325.025 -42.221,-490.325c5.584,-97.984 15.292,-195.725 23.942,-303.525c-70.508,67.879 -112.383,147.142 -166.129,216.883c-102.404,132.875 -191.771,275.842 -308.788,397.379c-6.025,6.259 -12.066,12.542 -18.537,18.325c-53.679,47.938 -107.046,115.08 -186.963,78.496c-73.691,-33.733 -82.825,-112.508 -82.083,-187.737c0.187,-19.034 0.025,-38.071 0.025,-80.467c-103.692,152.821 -202.675,279.375 -308.196,400.579c-32.121,36.896 -66.629,73.421 -105.908,102.092c-153.7,112.192 -324.317,48.737 -366.788,-136.846c-48.566,-212.233 -7.158,-419.808 40.204,-626.471c4.517,-19.716 9.555,-39.308 14.621,-65.816c4.213,-13.355 2.396,-17.988 -9.096,-20.488Z" style="fill:#f3d2c3;fill-rule:nonzero;"/><path d="M964.914,8183.14c46.225,-369.167 92.617,-730.542 134.767,-1092.41c13.033,-111.883 17.083,-225.05 19.929,-337.762c1.029,-40.8 5.971,-95.125 -45.191,-111.638c-47.455,-15.321 -80.913,22.696 -109.913,54.996c-133.767,148.988 -217.487,326.696 -288.433,511.083c-122.871,319.325 -181.429,656.896 -277.275,983.93c-47.154,160.904 -90.238,323.287 -161.329,475.699c-31.305,67.117 -63.655,152.846 -157.609,133.892c-88.412,-17.837 -76.583,-109.454 -78.566,-173.433c-7.55,-243.404 19.141,-485.433 49.054,-726.588c51.962,-418.916 115.1,-836.058 228.071,-1243.83c22.337,-80.617 43.637,-162.608 92.6,-232.654c38.212,-54.663 87.475,-99.567 158.758,-83.704c69.65,15.504 89.362,77.908 96.479,140.246c18.321,160.483 -27.433,315.412 -45.154,472.787c-4.304,38.254 -9.958,76.354 -2.1,117.15c50.175,-83.387 98.258,-168.125 151.079,-249.8c60.171,-93.046 132.967,-176.246 226.279,-237.371c169.584,-111.083 310.542,-56.775 363.509,138.509c43.041,158.687 43.691,321.621 31.879,483.125c-32.359,442.454 -110.359,877.212 -240.042,1302c-12.6,41.266 -30.579,81.15 -48.996,120.296c-12.266,26.075 -28.408,54.979 -63.575,49.375c-33.366,-5.321 -43.4,-35.3 -50.408,-64.117c-34.533,-142.05 -1.8,-281.85 16.187,-429.783Z" style="fill:#f5d3c2;fill-rule:nonzero;"/><path d="M4263.16,2426.43c152.646,-204.512 311.1,-396.366 472.263,-586.083c17.371,-20.45 55.729,-39.079 39.008,-68.567c-13.608,-24 -52.233,-14.587 -80.375,-14.691c-194.941,-0.709 -384.162,50.816 -577.612,63.475c-48.875,3.2 -98.129,3.129 -147.075,1.204c-15.329,-0.604 -36.334,-3.692 -41.829,-24.196c-6.742,-25.171 11.516,-38.75 29.958,-46.371c55.942,-23.121 111.679,-48.229 169.771,-64.4c263.525,-73.362 530.65,-117.525 805.466,-84.525c31.413,3.771 63.059,9.663 93.23,18.988c142.416,44.021 172.304,132.95 85.641,254.816c-241.521,339.634 -483.596,678.875 -725.271,1018.4c-16.35,22.967 -31.195,47.005 -51.208,77.317c58.25,12.592 108.1,22.454 157.417,34.504c18.75,4.575 44.991,8.188 43.675,33.859c-1.329,25.879 -22.217,39.083 -47.909,41.879c-54.62,5.954 -109.679,18.796 -163.8,15.662c-66.995,-3.879 -104.7,24.859 -140.358,77.242c-131.908,193.783 -268.042,384.692 -401.675,577.308c-19.162,27.625 -44.8,52.629 -50.625,96.504c52.4,0 102.542,-0.095 152.688,0.017c266.02,0.579 532.995,-20.658 796.87,30.513c48.825,9.466 122.821,13.212 117.121,77.445c-6.021,67.9 -81.821,50.913 -129.358,51.33c-243.054,2.137 -486.417,-13.971 -728.979,12.754c-86.125,9.491 -171.467,27.008 -257.721,34.221c-103.304,8.641 -142.379,-23.817 -163.996,-123.73c-23.592,-109.07 4.138,-213.02 35.588,-315.42c50.391,-164.088 129.754,-315.321 217.104,-462.217c28.454,-47.846 28.041,-66.204 -35.663,-73.992c-48.941,-5.983 -134.912,7.771 -133.491,-58.308c1.008,-46.933 87.083,-44.979 134.55,-41.467c109.258,8.092 171.725,-37.841 228.066,-129.887c88.921,-145.275 195.5,-279.75 298.529,-423.584Z" style="fill:#f5d3c2;fill-rule:nonzero;"/><path d="M7398.83,5768.18c-45.458,118.021 -105.833,220.759 -179.833,313.292c-67.892,84.896 5.95,126.75 45.404,174.675c42.154,51.204 98.887,56.808 152.612,9.667c19.542,-17.154 36.425,-37.346 56.05,-54.388c13.892,-12.066 27.213,-38.325 48.963,-20.933c18.171,14.529 6.35,37.775 -1.708,56.3c-76.313,175.437 -286.296,210.204 -421.396,64.133c-44.796,-48.429 -68.125,-53.183 -120.554,-10.612c-105.25,85.454 -227.88,97.737 -350.913,40.687c-147.862,-68.558 -204.029,-200.287 -213.983,-352.062c-18.663,-284.638 88.375,-519.963 299.875,-707.713c36.6,-32.491 47.037,-64.879 49.041,-111.371c6.738,-156.47 25.375,-311.204 99.8,-453.358c27.13,-51.817 60.917,-97.654 104.109,-137.512c66.537,-61.405 144.983,-76.192 225.558,-45.738c79.146,29.913 118.942,98.688 129.375,181.533c14.938,118.621 -12.375,229.671 -66.237,335.192c-52.917,103.667 -118.163,199.458 -196.442,284.908c-42.971,46.905 -57.492,96.271 -51.692,157.13c14.554,152.645 27.313,305.216 85.071,449.912c20.529,51.417 38.304,54.654 74.067,11.192c103.321,-125.554 168.975,-268.084 202.887,-426.196c4.679,-21.821 1.129,-47.163 28.617,-63.404c68.946,99.275 28.167,199.05 1.329,304.666Z" style="fill:#f3d2c3;fill-rule:nonzero;"/><path d="M4942.79,731.642c19.788,13.216 33.917,23.454 49.055,31.887c106.675,59.45 164.825,42.838 213.025,-67.679c78.537,-180.071 153.345,-361.767 229.966,-542.675c18.904,-44.625 38.742,-88.858 58.392,-133.829c38.446,17.371 40.062,49.4 50.683,74.812c76.892,183.959 152.913,368.284 228.796,552.663c28.333,68.833 54.592,138.904 134.033,172.296l-285.808,-0c53.442,-30.313 80.713,-65.121 48.938,-129.584c-31.738,-64.387 -38,-150.896 -145.996,-128.35c-24.975,5.213 -52.754,4.925 -77.884,0.1c-96.062,-18.45 -144.712,21.521 -176.291,113.017c-25.413,73.621 -26.375,117.396 60.275,141.083l-607.792,0c92.017,-35.846 61.046,-77.933 18.025,-121.746c-78.962,-80.42 -157.092,-161.662 -254.225,-261.787c0,118.617 -2.6,212.046 1.008,305.233c2.063,53.321 52.105,59.884 90.938,81.35l-308.821,0c105.883,-10.812 103.65,-89.008 103.738,-165.387c0.162,-144.725 0.12,-289.442 -0.046,-434.167c-0.146,-125.754 -0.392,-125.942 -117.888,-176.317l332.221,0c-188.4,76.717 -61.579,233.6 -101.737,349.025c104.912,-77.466 201.304,-160.466 278.379,-263.029c41.837,-55.671 -27.596,-57.804 -55.204,-86.337l271.891,-0c-148.041,67.346 -231.512,204.275 -346.704,304.725c-35.475,30.933 -31.908,51.512 0.575,82.512c102.588,97.888 202.388,198.692 308.458,302.184Z" style="fill:#e9d6e8;fill-rule:nonzero;"/><path d="M2804.16,808.767c-77.225,-106.292 -150.808,-206.684 -221.245,-309.234c-22.63,-32.945 -48.888,-49.37 -86.438,-38.3c-40.617,11.975 -21.292,48.267 -22.942,73.913c-2.779,43.217 0.642,86.792 -0.27,130.183c-1.571,74.609 5.554,142.179 103.345,153.213l-310.391,-0c102.675,-19.496 97.366,-97.171 96.183,-176.242c-2.212,-147.579 -2.037,-295.237 -0.012,-442.821c1.008,-73.7 0.141,-142.154 -104.563,-151.029c144.296,-9.112 281.333,-20.933 417.196,-0.362c110.004,16.658 170.158,79.883 178.137,171.179c9.467,108.304 -26.066,161.304 -140.283,209.75c-10.608,4.5 -20.696,10.241 -40.3,20.041c68.817,93.721 130.975,190.617 205.5,276.825c97.813,113.15 200.892,94.063 259.208,-41.879c86.613,-201.896 170.846,-404.808 256.88,-606.95c7.57,-17.791 7.645,-40.879 36.241,-54.312c28.784,13.858 30.825,48.812 41.863,75.129c80.496,191.95 159.329,384.596 238.421,577.133c24.808,60.388 53.42,116.763 125.779,141.404l-279.909,0c53.65,-59.162 51.396,-165.17 -6.095,-236.704c-16.15,-20.091 -34.742,-17.287 -54.196,-17.521c-49.221,-0.587 -99.484,6.146 -147.45,-1.641c-81.992,-13.309 -118.029,23.591 -143.946,96.312c-38.246,107.296 -42.154,106.971 53.679,161.321c-149.829,1.188 -299.587,19.146 -454.392,-9.408Z" style="fill:#e9d6e8;fill-rule:nonzero;"/><path d="M8100.66,37.892c37.542,1.062 68.071,8.754 95.08,2.116c181.05,-44.496 287.895,47.813 383.379,186.742c89.054,129.579 195.479,247.233 310.021,389.75c-0,-179.562 1.358,-333.663 -0.713,-487.717c-0.758,-56.179 -51.192,-61.646 -91.879,-83.233l248.704,-0c-122.308,13.067 -95.908,106.962 -96.367,185.304c-1.054,179.425 -0.125,358.858 -0.729,538.283c-0.066,19.163 10.204,45.513 -11.421,55.675c-29.383,13.805 -38.354,-18.566 -51.275,-34.404c-138.987,-170.321 -276.737,-341.645 -415.175,-512.416c-12.229,-15.08 -20.204,-35.409 -51.616,-41.938c-0,167.6 -2.004,333.346 1.191,498.996c0.992,51.25 46.33,66.35 90.009,83.113l-248.025,-0c26.237,-30.4 84.141,-17.655 91.2,-63.559c6.096,-39.625 7.133,-80.283 7.354,-120.5c0.796,-144.696 0.754,-289.4 0.112,-434.1c-0.366,-82.629 -69,-143.579 -159.558,-143.533c-82.454,0.037 -111.008,34.833 -111.325,138.217c-0.475,156.274 -0.346,312.554 -0.137,468.833c0.141,107.121 0.4,107.121 98.983,160.991l-309.575,0c104.783,-21.908 100.608,-100.145 99.883,-178.791c-1.391,-150.479 -1.329,-300.983 -0.083,-451.463c0.587,-71 -4.758,-135.358 -96.121,-156.366l218.083,-0Z" style="fill:#e9d6e8;fill-rule:nonzero;"/><path d="M6423.37,411.725c52.529,64.746 101.091,124.758 163.279,201.604c-0,-177.662 1.546,-334.446 -0.808,-491.166c-0.867,-57.742 -58.063,-52.284 -113.913,-77.509l270.308,0c-107.462,18.75 -100.095,102.592 -100.208,181.796c-0.275,199.388 -0.092,398.775 -18.621,610.242c-163.146,-200.254 -326.287,-400.504 -504.433,-619.175c-0,187.775 -1.083,351.366 0.571,514.933c0.6,59.183 53.158,64.663 94.379,86.275l-247.892,0c92.213,-20.296 100.2,-86.475 98.367,-163.812c-3.013,-127.25 -0.604,-254.625 -0.583,-381.95c0.025,-162.342 -0.038,-162.371 -146.134,-220.234c131.05,-41.058 199.909,-22.1 279.134,76.746c74.166,92.529 148.391,185.008 226.554,282.25Z" style="fill:#e9d6e8;fill-rule:nonzero;"/><path d="M6052.79,10455.7c-56.137,124.321 -109.325,242.45 -171.92,381.475c-76.05,-164.441 -143.959,-311.262 -211.863,-458.083c-5.762,1.138 -11.529,2.275 -17.292,3.417c0,121.654 -0.558,243.308 0.292,364.958c0.313,44.446 38.371,48.975 69.663,65.679l-184.338,0c55.808,-11.346 79.996,-48.508 73.625,-102.517c-18.583,-157.466 46.213,-326.845 -43.683,-474.979c120.446,-21.162 120.725,-21.291 179.537,106.388c49.492,107.433 98.229,215.221 156.334,342.654c55.166,-122.304 102.745,-228.483 150.92,-334.392c58.546,-128.704 58.767,-128.604 204.992,-117.2c-99.65,70.613 -95.142,530.584 13.446,582.025l-255.213,0c62.538,-17.337 92.796,-39.079 92.913,-84.166c0.296,-115.221 0.096,-230.442 0.096,-350.25c-41.013,12.52 -38.467,47.583 -57.509,74.991Z" style="fill:#e9d6e8;fill-rule:nonzero;"/><path d="M9977.75,824.642c-63.325,-0.054 -119.738,-0.054 -176.154,-0.054c71.15,-47.296 97.2,-115.705 125.65,-183.859c86.508,-207.212 174.908,-413.633 263.775,-623.212c44.325,28.404 48.704,71.779 63.812,107.321c76.8,180.67 151.221,362.354 225.996,543.883c24.617,59.758 48.717,119.329 119.908,147.825l-281.087,-0c58.696,-49.783 61.425,-184.854 -0.45,-242.096c-10.654,-9.858 -31.529,-11.429 -47.829,-11.917c-49.142,-1.466 -99.121,4.988 -147.367,-1.725c-82.95,-11.537 -123.325,21.2 -149.254,100.088c-23.342,71.004 -46.425,128.262 55.791,143.887c-10.308,28.188 -30.229,17.855 -52.791,19.859Z" style="fill:#e9d6e8;fill-rule:nonzero;"/><path d="M7311.58,157.642c-82.75,136.758 -96.921,278.096 -60.029,423.846c52.812,208.658 308.629,276.466 461.871,125.416c23.854,-23.508 36.716,-58.279 70.291,-72.608c16.138,21.033 0.28,33.729 -8.779,47.246c-88.987,132.804 -216.104,178.379 -369.441,155.016c-145.117,-22.112 -256.955,-133.962 -292.717,-285.333c-66.996,-283.562 128.025,-540.942 401.137,-530.462c41.388,1.587 81.667,9.12 117.271,27.741c48.788,25.513 90.267,30.696 132.604,-48.504c7.084,112.504 12.33,195.808 17.571,279.108c-61.825,-105.412 -122.004,-207.696 -258.937,-214.183c-80.467,-3.808 -155.617,16.5 -210.842,92.717Z" style="fill:#e9d6e8;fill-rule:nonzero;"/><path d="M9480.08,231.683c0.004,153.238 -1.362,297.867 0.646,442.446c0.904,64.933 6.212,131.45 96.529,143.004l-300.25,0c99.896,-20.946 95.354,-96.904 93.596,-176.529c-3.25,-147.433 0.912,-295.025 -2.321,-442.454c-0.767,-34.929 26.842,-84.963 -25.446,-104.029c-75.487,-27.534 -169.796,5.146 -198.766,63.3c-8.805,17.666 -13.963,37.15 -34.017,56.371c-0,-45.55 -0.517,-91.105 0.162,-136.642c0.538,-36.262 25.938,-39.229 54.096,-39.188c176.5,0.25 353.013,1.267 529.492,-0.708c42.117,-0.471 57.179,16.409 56.767,55.096c-0.425,40.187 -0.096,80.387 -6.921,133.071c-28.563,-143.754 -132.084,-149.838 -233.417,-128.829c-65.312,13.541 -14.983,84.395 -30.15,135.091Z" style="fill:#f1dbe9;fill-rule:nonzero;"/><path d="M6724,10259.5c105.771,84.887 105.804,170.046 2.537,254.696c32.263,30.82 79.363,44.637 96.554,92.07c35.455,97.817 -35.416,200.467 -156.937,208.138c-115.133,7.271 -231.092,1.567 -351.883,-2.617c71.466,-11.375 75.958,-60.8 75.454,-115.141c-1.042,-112.867 -0.746,-225.746 -0.259,-338.621c0.23,-52.642 2.892,-105.638 -71.612,-121.867c138.771,-0.079 271.446,-26.621 406.146,23.342Z" style="fill:#e9d6e8;fill-rule:nonzero;"/><path d="M4162.83,10593.8c-45.512,147.188 -128.987,217.225 -269.65,223.146c-97.883,4.121 -196.083,0.792 -299.192,-3.925c64.055,-15.079 74.175,-57.562 72.817,-112.625c-2.921,-118.375 -1.475,-236.875 -0.625,-355.316c0.354,-49.055 0.267,-95.971 -69.962,-105.555c130.416,-10.32 255.204,-20.054 378.37,6.059c139.934,29.666 210.192,159.187 188.242,348.216Z" style="fill:#e9d6e8;fill-rule:nonzero;"/><path d="M7600.5,10766.2c14.3,35.196 48.337,24.654 75.096,48.129l-243.505,0c76.713,-5.596 76.93,-60.004 76.534,-116.533c-0.804,-115.767 -1.325,-231.563 0.279,-347.317c0.746,-53.9 -6.258,-99.271 -74.854,-110.346c113.208,-13.337 223.275,-20.829 332.266,2.021c61.421,12.871 101.996,52.329 109.842,118.208c7.938,66.617 -10.1,124.35 -75.246,150.613c-49.766,20.067 -54.662,39.1 -21.696,78.962c64.85,78.43 102.817,182.705 225.346,217.33c-102.279,27.796 -174.954,17.691 -224.433,-75.98c-29.438,-55.737 -73.033,-103.97 -109.921,-155.82c-14.75,-20.73 -33.675,-33.363 -58.904,-24.567c-25.371,8.846 -18.658,33.296 -18.396,52.237c0.725,52.034 3.383,104.034 7.592,163.063Z" style="fill:#e6cee0;fill-rule:nonzero;"/><path d="M7322.25,10230.8c32.162,37.655 28.175,77.771 22.987,143.859c-47.758,-137.888 -147.641,-107.788 -235.554,-112.121c-38.321,-1.892 -52.437,15.4 -49.821,51.6c1.042,14.396 -3.35,29.904 0.496,43.246c13.004,45.141 -36.137,116.983 34.679,133.2c68.563,15.695 150.792,25.441 197.946,-82.121l0,209.808c-29.554,-42.058 -39.287,-84.479 -83.308,-86.154c-47.867,-1.821 -98.292,-19.604 -141.884,12.158c-17.358,12.642 -10.141,203.471 4.246,221.296c32.796,40.642 212.85,19.658 258.846,-29.096c17.183,-18.212 19.617,-49.521 49.879,-56.625c-17.275,138.454 -18.529,139.563 -146.241,139.417c-109.063,-0.129 -218.121,-0.029 -332.805,-7.804c58.996,-10.717 72.834,-46.133 72.105,-96.338c-1.855,-127.383 -1.884,-254.837 0.129,-382.221c0.791,-50.241 -15.679,-82.616 -67.413,-103.708c136.163,0 272.325,0 415.713,1.604Z" style="fill:#e6c7de;fill-rule:nonzero;"/><path d="M5338.29,10540.4c-60.47,-13.966 -135.695,-36.504 -160.945,5.713c-35.296,59.008 -14.25,140.175 -8.075,211.796c1.308,15.183 17.825,19.575 32.441,23.871c96.134,28.233 200.488,-8.3 264.559,-93.171c3.016,-3.992 9.791,-5.154 14.866,-7.529c-9.187,132.516 -13.825,137.316 -140.016,137.716c-109.309,0.346 -218.621,0.071 -333.855,-6.916c63.046,-13.617 71.725,-55.859 71.23,-106.28c-1.196,-121.566 -1.834,-243.183 0.245,-364.729c0.884,-51.587 -11.025,-89.996 -67.02,-111.521c130.916,0 262.229,-6.095 392.616,2.209c82.554,5.258 30.084,79.433 44.596,125.658c-47.504,-126.683 -152.954,-89.154 -242.746,-94.137c-29.05,-1.613 -41.896,11.787 -41.466,41.004c0.725,49.196 0.029,98.416 -0.196,147.625c-0.084,18.35 4.037,32.525 23.65,41.054c62.416,27.137 162.908,-7.704 206.604,-83.271l-0,199.292c-20.654,-27.309 -35.096,-46.404 -56.488,-68.384Z" style="fill:#e6c7de;fill-rule:nonzero;"/><path d="M4728.21,10833.6c-61.021,-4.704 -112.1,-55.15 -172.021,-3.012l0,-191.709c31.704,15.634 28.746,48.417 40.638,70.796c32.091,60.417 82.316,86.971 148.671,86.125c47.404,-0.608 86.05,-19.487 101.85,-66.058c16.241,-47.85 -5.834,-85.763 -45.167,-111.875c-50.608,-33.596 -103.842,-63.204 -155.1,-95.859c-92.508,-58.933 -122.154,-130.125 -88.842,-209.846c32.079,-76.77 122.671,-114.562 221.763,-85.412c38.762,11.404 74.116,23.004 114.291,-1.583l0,187.441c-33.025,-17.979 -29.645,-48.087 -40.066,-68.412c-29.35,-57.238 -73.917,-87.992 -138.379,-87.171c-40.88,0.517 -74.205,18.183 -89.984,56.729c-16.787,41.025 1.275,75.121 35.163,97.704c50.45,33.629 103.358,63.6 155.512,94.634c73.592,43.787 133.692,96.987 115.759,193.529c-15.871,85.437 -81.055,127.871 -204.088,133.979Z" style="fill:#e6cee0;fill-rule:nonzero;"/><path d="M4103,202.517c0.008,158.637 2.487,309.275 -1.038,459.771c-1.737,74.279 8.625,133.412 95.7,154.525l-304.712,-0c95.737,-9.313 102.133,-76.863 101.766,-150.955c-0.754,-153.471 0.538,-306.95 -0.079,-460.42c-0.441,-109.784 -8.458,-121.109 -111.591,-163.242l313.529,-0c-85.154,19.516 -97.167,80.958 -93.575,160.321Z" style="fill:#f1dbe9;fill-rule:nonzero;"/><path d="M8880.25,10220c17.521,2.8 30.166,2.475 39.85,7.666c108.254,58.009 134.158,159.642 137.887,270.209c4.088,121.025 -4.108,240.725 -121.908,313.166c-53.971,33.196 -110.675,26.146 -159.892,-17.729c-123.454,-110.054 -125.316,-421.187 -3.425,-532.041c28.959,-26.338 61.509,-42.342 107.488,-41.271Z" style="fill:#e9d6e8;fill-rule:nonzero;"/><path d="M3080.21,10460.8c123.654,-29.266 183.521,-8.916 221.842,77.684c39.029,88.2 -0.225,222.004 -79.2,269.962c-81.609,49.567 -186.659,17.509 -237.154,-72.366c-113.709,-202.392 45.695,-499.988 277.129,-517.288c11.141,-0.837 23.179,-3.5 32.95,16.638c-112.054,22.912 -188.359,88.329 -227.984,201.712c7.538,6.371 -5.783,23.896 12.417,23.658Z" style="fill:#e6cee0;fill-rule:nonzero;"/><path d="M9861.62,10228.9c25.583,0.325 43.446,1.783 35.287,28.125c-7.816,25.233 -16.191,50.604 -49.8,50.883c-31.758,0.263 -63.633,2.271 -95.246,0.229c-36.537,-2.354 -64.05,8.742 -71.875,46.029c-10,47.671 34.013,36.667 56.475,45.371c121.717,47.142 179.838,139.633 157.425,254.625c-20.512,105.242 -121.904,181.067 -235.475,175.871c-11.47,-0.521 -23.1,-1.371 -34.279,-3.804c-34.121,-7.425 -65.937,-25.117 -52.071,-63.363c13.7,-37.779 48.405,-22.516 73,-7.308c60.109,37.167 114.442,36.058 162.371,-19.092c58.488,-67.3 34.596,-177.129 -51.462,-230.216c-31.717,-19.567 -66.354,-38.2 -104.942,-36.979c-69.471,2.204 -61.183,-29.621 -35.058,-72.196c5.991,-9.763 12.529,-19.955 15.271,-30.838c29.866,-118.546 107.141,-159.296 230.379,-137.337Z" style="fill:#e6cee0;fill-rule:nonzero;"/><path d="M9483.25,10730.2c-10.209,73.538 -47.234,94.95 -114.242,90.013c-83.233,-6.13 -167.262,-1.467 -259.771,-1.467c12.975,-45.354 47.417,-63.275 71.4,-88c60.584,-62.446 122.071,-124.033 164.246,-201.179c50,-91.454 43.25,-179.238 -15.546,-221.263c-58.241,-41.629 -118.637,-20.783 -200.079,72.817c-0.133,-71.859 29.567,-123.492 87.558,-148.259c63.9,-27.291 130.996,-23.008 187.484,26.126c51.466,44.766 63.191,101.479 45.908,165.566c-24.317,90.163 -86.592,155.738 -145.875,223.075c-24.767,28.133 -50.783,55.167 -82.146,89.1c94.567,30.042 178.988,9.733 261.063,-6.529Z" style="fill:#e6cee0;fill-rule:nonzero;"/><path d="M8431.58,10643.6c-30.483,33.892 -56.837,63.134 -92.808,103.038c99.616,0.95 186.283,23.692 268.5,-35.95c-5.004,79.892 -32.025,119.025 -117.292,109.975c-82.25,-8.733 -166.154,-1.892 -268.375,-1.892c61.3,-64.958 109.821,-116.191 158.129,-167.616c39.817,-42.384 74.634,-88.484 99.288,-141.375c41.841,-89.75 28.391,-178.796 -36.704,-208.388c-81.755,-37.162 -136.634,4.683 -183.705,72.2c2.08,-53.933 13.988,-103.754 65.38,-132.037c62.991,-34.663 128.866,-32.992 189.379,5.783c53.246,34.125 75.446,86.975 66.246,149.625c-14.675,99.912 -79.646,170.975 -148.038,246.637Z" style="fill:#e6cee0;fill-rule:nonzero;"/><path d="M4306.83,10550.6c-0.125,-73.95 -0.442,-140.408 -0.237,-206.871c0.154,-49.733 -11.292,-91.354 -68.392,-109.362l220.562,-0c-70.35,16.862 -66.441,70.433 -66.129,123.325c0.684,115.579 1.525,231.187 -0.421,346.737c-0.92,54.538 4.688,99.763 73.946,108.154l-233.979,0c131.433,-52.912 54.271,-167.941 74.65,-261.983Z" style="fill:#e6cee0;fill-rule:nonzero;"/><path d="M8954.66,7190.18c-10.275,-72.312 -25.712,-137.533 -19.787,-204.391c2.071,-23.392 -13.975,-59.888 21.987,-65.284c32.413,-4.862 34.246,32.721 45.63,54.513c5.166,9.891 7.887,21.062 14.908,40.487c36.267,-28.921 68.796,-55.075 101.583,-80.891c11.4,-8.975 23.917,-17.946 38.959,-9.159c17.912,10.471 19.275,27.246 13.095,45.084c-31.695,91.525 -84.787,170.212 -149.812,240.641c-25,27.071 -51.017,24.579 -66.563,-21Z" style="fill:#e8cbbd;fill-rule:nonzero;"/><path d="M5217.58,2297.85c-0.233,-10.542 -0.575,-13.508 -0.017,-16.287c6.842,-34.046 -21.641,-88.201 24.338,-97.738c41.787,-8.671 34.558,50.067 52.133,77.004c3.096,4.746 7.467,8.659 13.721,15.759c30.042,-25.892 59.696,-52.221 90.271,-77.434c12.908,-10.646 27.146,-24.271 45.746,-12.071c17.508,11.48 15.871,29.117 9.975,46.246c-31.484,91.488 -84.075,170.275 -150.234,239.65c-32.45,34.025 -56.929,20.492 -64.687,-22.262c-8.729,-48.084 -14.104,-96.775 -21.246,-152.867Z" style="fill:#e8cbbd;fill-rule:nonzero;"/><path d="M2019.79,8051.81c11.717,-31.587 29.78,-63.537 49.93,-99.179c29.295,35.213 6.479,61.754 -3.28,94.904c-15.079,5.255 -27.691,4.579 -46.65,4.275Z" style="fill:#775a62;fill-rule:nonzero;"/><path d="M6879.46,7771.23c-108.158,143.079 -212.154,281.546 -317.396,419.058c-20.958,27.38 -45.741,52.088 -70.554,76.184c-20.292,19.708 -44.867,51.37 -71.525,39.15c-37.937,-17.388 -14.004,-55.917 -7.904,-84.925c42.967,-204.38 105.55,-402.238 216.15,-580.888c112.767,-182.158 233.183,-209.392 427.225,-100.637c-57.688,76.045 -114.975,151.579 -175.996,232.058Z" style="fill:#472f45;fill-rule:nonzero;"/><path d="M10395.2,7792.98c42.863,-92.667 84.642,-178.558 154.734,-246.058c88.462,-85.2 229.025,-95.7 328.187,-28.584c25.938,17.555 17.679,30.871 4.154,48c-180.745,228.896 -338.883,475.205 -533.683,693.209c-20.567,23.012 -48.837,57.266 -78.237,43.629c-39.105,-18.142 -15.792,-62.688 -9.713,-92.992c28.458,-141.787 76.529,-277.771 134.558,-417.204Z" style="fill:#472f45;fill-rule:nonzero;"/><path d="M9701.29,8127.56c69.784,268.255 44.617,629.842 -73.862,897.696c-0,-103.033 -1.896,-206.112 0.529,-309.091c2.442,-103.73 7.717,-207.455 14.433,-311.009c6.9,-106.346 17.05,-212.479 25.775,-318.7c26.542,-0.516 26.68,19.142 33.125,41.104Z" style="fill:#472f45;fill-rule:nonzero;"/><path d="M3233.96,7550.89c-0.183,16.283 -4.75,29.104 -17.521,64.929c0,-37.709 0,-51.192 1.946,-69.671c5.025,-2.9 8.108,-0.808 15.575,4.742Z" style="fill:#422b45;fill-rule:nonzero;"/><path d="M6971.25,7808.18c-0.7,-10.537 -5.142,-30.012 10.6,-21.758c13.75,7.208 2.216,17.746 -10.6,21.758Z" style="fill:#422b45;fill-rule:nonzero;"/><path d="M10146.9,7994.93c6.48,-9.375 17.188,-20.066 11.755,6.034c-3.455,2.308 -9.063,-3.179 -11.755,-6.034Z" style="fill:#422b45;fill-rule:nonzero;"/><path d="M6204.79,3967.31c-33.962,236.334 -69.35,464.642 -118.758,690.529c-13.062,59.73 -32.917,116.713 -65.833,168.775c-104.513,165.296 -285.7,161.23 -378.659,-10.933c-60.75,-112.512 -59.633,-235.508 -34.387,-355.537c64.867,-308.384 249.775,-548.7 453.75,-777.134c55.687,-62.358 109.533,-126.362 178.492,-180.496c12.904,160.538 -14.405,308.505 -34.605,464.796Z" style="fill:#442d45;fill-rule:nonzero;"/><path d="M7224.79,3440.56c-38.12,39.913 -71.595,75.796 -106.808,109.888c-12.162,11.775 -28.837,22.35 -47.096,14.916c-21.133,-8.604 -15.979,-30.358 -12.941,-44.974c52.008,-250.075 116.337,-496.763 283.979,-698.313c87.666,-105.396 226.546,-115.112 338.296,-43.058c41.083,26.491 9.754,44.137 -2.905,61.062c-148.854,199.075 -298.858,397.296 -452.525,600.479Z" style="fill:#472f45;fill-rule:nonzero;"/><path d="M8483.87,3543.43c42.621,-247.946 114.179,-479.079 255.683,-681.9c95.604,-137.037 208.758,-160.433 355.483,-87.425c28.521,14.188 42.05,25.03 17.28,55.855c-181.146,225.416 -335.955,471.42 -533.555,683.791c-21.991,23.634 -43.67,75.284 -94.891,29.679Z" style="fill:#472f45;fill-rule:nonzero;"/><path d="M7624.33,3058.35c2.908,-10.471 3.371,-26.217 17.721,-20.85c2.804,1.05 0.571,15.542 -3.196,27.217c-6.258,1.246 -8.654,-0.892 -14.525,-6.367Z" style="fill:#422b45;fill-rule:nonzero;"/><path d="M6643.25,6131.89c-34.909,-212.717 36.458,-389.105 160.291,-577.409c6.505,66.913 9.492,110.863 15.255,154.446c18.291,138.438 58.116,270.413 127.437,391.988c20.108,35.266 18.9,56.82 -19.037,74.695c-31.225,14.713 -60,35.067 -91.909,47.784c-95.433,38.025 -137.716,18.296 -192.037,-91.504Z" style="fill:#472f45;fill-rule:nonzero;"/><path d="M7019.5,4785.35c20.066,-55.596 41.275,-102.813 79.171,-140.429c23.416,-23.242 48.841,-42.633 84.15,-27.771c33.933,14.283 42.5,45.804 45.337,77.967c4.267,48.37 -17.404,90.187 -40.829,130.008c-54.938,93.392 -113.275,184.408 -208.463,266.35c-4.133,-112.333 5.938,-207.246 40.634,-306.125Z" style="fill:#472f45;fill-rule:nonzero;"/><path d="M5576.29,460.767c4.621,22.883 30.259,44.4 -7.291,52.237c-5.554,1.159 -11.563,-0.087 -17.271,0.558c-213.163,24.009 -217.779,18.001 -135.229,-178.041c15.208,-36.113 31.15,-71.921 54.512,-125.746c38.979,92.675 70.925,168.625 105.279,250.992Z" style="fill:#472f45;fill-rule:nonzero;"/><path d="M2471.66,232.142c14.638,-52.371 -34.787,-121.688 37.78,-140.217c71.641,-18.288 147.5,-8.113 191.67,63.063c39.513,63.666 39.125,132.308 -10.112,193.02c-45.288,55.842 -110.646,68.375 -178.1,72.15c-44.579,2.496 -40.608,-30.183 -40.825,-59.004c-0.3,-40.254 -0.288,-80.512 -0.413,-129.012Z" style="fill:#4c2d4f;fill-rule:nonzero;"/><path d="M3355.37,305.1c14.45,-31.342 26.829,-56.633 44.208,-92.137c38.438,91.12 73.383,172.9 107.392,255.062c14.208,34.325 -1,48.033 -35.525,45.654c-2.875,-0.2 -5.784,-0.116 -8.663,0.067c-201.012,12.896 -201.012,12.896 -107.412,-208.646Z" style="fill:#472f45;fill-rule:nonzero;"/><path d="M10238.3,371.85c18.525,46.013 34.738,85.717 54.238,133.475c-84.092,15.096 -161.78,8.1 -250.842,4.558c41.908,-99.17 80.417,-190.291 127.175,-300.95c27.592,64.388 47.354,110.496 69.429,162.917Z" style="fill:#472f45;fill-rule:nonzero;"/><path d="M6551.25,10534.2c33.337,3.579 60.421,3.329 84.35,11.883c55.762,19.938 92.912,55.629 91.4,121.38c-1.554,67.716 -44.417,98.129 -101.313,111.137c-32.937,7.533 -68.741,2.167 -103.225,3.442c-37.3,1.375 -51.275,-17.825 -50.671,-52.95c0.696,-40.421 3.346,-81.229 -0.937,-121.217c-6.142,-57.362 16.154,-80.921 80.396,-73.675Z" style="fill:#472f45;fill-rule:nonzero;"/><path d="M6566.25,10501.5c-74.009,9.567 -106.829,-15.267 -94.988,-85.829c0.946,-5.633 -1.358,-12.046 0.35,-17.279c15.767,-48.184 -45.2,-131.846 64.584,-136.805c94.141,-4.249 164.791,38.617 172.604,107.967c8.683,77.117 -27.65,112.559 -142.55,131.946Z" style="fill:#4c2d4f;fill-rule:nonzero;"/><path d="M3975.87,10310.5c104.866,97.383 112.146,211.516 71.133,330.916c-38.337,111.6 -128.967,157.392 -246.887,142.03c-38.409,-5.009 -47.442,-20.334 -47.146,-54.846c1.137,-132.975 2.183,-266 -0.542,-398.929c-0.962,-47.096 21.338,-61.13 61.438,-62.505c55.9,-1.916 109.783,4.48 162.004,43.334Z" style="fill:#442d45;fill-rule:nonzero;"/><path d="M7768.96,10332.4c14.992,43.225 16.558,80.038 -4.221,114.696c-33.941,56.621 -93.258,75.896 -148.966,66.212c-45.992,-7.995 -15.775,-63.3 -23.363,-96.708c-1.867,-8.225 -2.204,-17.771 0.042,-25.792c11.337,-40.516 -31.95,-101.2 31.254,-120.266c55.287,-16.675 108.496,3.091 145.254,61.858Z" style="fill:#472f45;fill-rule:nonzero;"/><path d="M8927.58,10282.9c65.492,147.225 52.317,292.05 20.079,436.645c-8.854,39.705 -29.75,77.713 -79.587,77.709c-46.817,-0.004 -61.742,-37.871 -72.975,-73.475c-42.846,-135.792 -40.425,-272.817 3.991,-406.934c19.95,-60.233 61.517,-92.92 128.492,-33.945Z" style="fill:#472f45;fill-rule:nonzero;"/><path d="M3176.46,10504.7c69.963,72.996 77.288,154.129 46.171,237.05c-27.638,73.659 -101.313,80.617 -148.321,17.155c-50.679,-68.413 -51.567,-150.184 -27.696,-223.359c15.317,-46.954 72.196,-60.491 129.846,-30.846Z" style="fill:#472f45;fill-rule:nonzero;"/><path d="M3079.37,10458.7c-9.975,12.646 -20.325,13.355 -15.763,-11.579c5.521,-0.771 8.596,2.638 15.763,11.579Z" style="fill:#422b45;fill-rule:nonzero;"/></svg>